<svg width="39" height="39" viewBox="0 0 39 39" fill="none" xmlns="http://www.w3.org/2000/svg">
<path d="M19.9254 33.4871C18.1718 31.411 15.0512 29.553 12.9424 27.8233L12.8738 27.767C10.5843 25.891 8.36099 24.0639 6.69627 21.9883C5.05075 19.9367 4 17.6997 4 15.0135C4 12.5508 4.85741 10.5188 6.27426 9.10457C7.69125 7.69021 9.72812 6.8335 12.198 6.8335C14.899 6.8335 17.325 8.79358 18.7739 10.3103L19.497 11.0671L20.2201 10.3103C21.6682 8.7944 24.1005 6.8335 26.8035 6.8335C29.2726 6.8335 31.3091 7.69016 32.7259 9.10453C34.1426 10.5188 35 12.5508 35 15.0135C35 17.7004 33.9486 19.9377 32.3025 21.9893C30.6373 24.0649 28.4137 25.8915 26.1249 27.7669L26.1114 27.7779C23.9843 29.52 21.6968 31.3935 19.9254 33.4871ZM19.9254 33.4871L19.497 33.0113" stroke="#6103D0" stroke-width="2"/>
</svg>
