<svg width="39" height="39" viewBox="0 0 39 39" fill="none" xmlns="http://www.w3.org/2000/svg">
<path d="M26.8035 5.8335C23.6595 5.8335 20.973 8.0745 19.497 9.6195C18.021 8.0745 15.3405 5.8335 12.198 5.8335C6.7815 5.8335 3 9.609 3 15.0135C3 20.9685 7.6965 24.8175 12.24 28.5405C14.385 30.3 16.605 32.118 18.3075 34.134C18.594 34.4715 19.014 34.6665 19.455 34.6665H19.542C19.9845 34.6665 20.403 34.47 20.688 34.134C22.3935 32.118 24.612 30.2985 26.7585 28.5405C31.3005 24.819 36 20.97 36 15.0135C36 9.609 32.2185 5.8335 26.8035 5.8335V5.8335Z" fill="#F74D5A"/>
</svg>
