<svg width="15" height="15" viewBox="0 0 15 15" fill="none" xmlns="http://www.w3.org/2000/svg">
<g clip-path="url(#clip0_236_10924)">
<path d="M7.5 8.75C7.00272 8.75 6.52581 8.94754 6.17417 9.29917C5.82254 9.6508 5.625 10.1277 5.625 10.625V15.0162H9.375V10.625C9.375 10.1277 9.17746 9.6508 8.82583 9.29917C8.47419 8.94754 7.99728 8.75 7.5 8.75Z" fill="#F74D5A"/>
<path d="M8.33625 0.521117C8.10671 0.314515 7.80882 0.200195 7.5 0.200195C7.19118 0.200195 6.89329 0.314515 6.66375 0.521117L0 6.51862V13.0186C0 13.5491 0.210714 14.0578 0.585786 14.4328C0.960859 14.8079 1.46957 15.0186 2 15.0186H4.375V10.6255C4.375 9.79669 4.70424 9.00184 5.29029 8.41578C5.87634 7.82973 6.6712 7.50049 7.5 7.50049C8.3288 7.50049 9.12366 7.82973 9.70971 8.41578C10.2958 9.00184 10.625 9.79669 10.625 10.6255V15.0167H13C13.5304 15.0167 14.0391 14.806 14.4142 14.431C14.7893 14.0559 15 13.5472 15 13.0167V6.51674L8.33625 0.521117Z" fill="#F74D5A"/>
</g>
<defs>
<clipPath id="clip0_236_10924">
<rect width="15" height="15" fill="white"/>
</clipPath>
</defs>
</svg>
