<svg width="55" height="59" viewBox="0 0 55 59" fill="none" xmlns="http://www.w3.org/2000/svg">
<path d="M40.7381 13.3452C40.7381 20.7156 34.7632 24.5833 27.3928 24.5833C20.0225 24.5833 14.0476 20.7156 14.0476 13.3452C14.0476 5.97487 20.0225 0 27.3928 0C34.7632 0 40.7381 5.97487 40.7381 13.3452Z" fill="#767676"/>
<path d="M54.7845 25.9881C54.7845 33.3585 48.8097 39.3333 41.4393 39.3333C34.0689 39.3333 34.4165 31.2513 34.4165 23.8809C34.4165 16.5106 34.0689 12.6429 41.4393 12.6429C48.8097 12.6429 54.7845 18.6177 54.7845 25.9881Z" fill="#767676"/>
<path fill-rule="evenodd" clip-rule="evenodd" d="M25.9879 18.2618C18.6175 18.2618 12.6426 24.2367 12.6426 31.6071C12.6426 38.9775 18.6175 44.9523 25.9879 44.9523C33.3582 44.9523 39.3331 38.9775 39.3331 31.6071C39.3331 24.2367 33.3582 18.2618 25.9879 18.2618ZM25.988 24.6165C22.1274 24.6165 18.9977 27.7462 18.9977 31.6069C18.9977 35.4676 22.1274 38.5973 25.988 38.5973C29.8487 38.5973 32.9784 35.4676 32.9784 31.6069C32.9784 27.7462 29.8487 24.6165 25.988 24.6165Z" fill="#767676"/>
<path d="M25.2857 21.7738C19.1846 24.5092 15.1536 31.9608 11.9405 35.1191C4.5701 35.1191 0 30.549 0 23.1786C0 15.8082 5.97487 9.83334 13.3452 9.83334C20.7156 9.83334 25.2857 14.4034 25.2857 21.7738Z" fill="#767676"/>
<path d="M26.6905 41.4405C26.6905 48.8109 20.7156 54.7857 13.3452 54.7857C5.97487 54.7857 0 48.8109 0 41.4405C0 34.0701 5.97487 28.0952 13.3452 28.0952C16.0738 33.8243 22.2436 39.5176 26.6905 41.4405Z" fill="#767676"/>
<path d="M49.1667 45.6547C49.1667 53.0251 43.1918 59 35.8214 59C28.4511 59 22.4762 53.0251 22.4762 45.6547C26.7148 41.9918 32.8308 36.1405 35.8214 32.3095C43.1918 32.3095 49.1667 38.2844 49.1667 45.6547Z" fill="#767676"/>
</svg>
