<svg width="15" height="15" viewBox="0 0 15 15" fill="none" xmlns="http://www.w3.org/2000/svg">
<g clip-path="url(#clip0_777_3435)">
<path d="M7.5 8.74982C7.00272 8.74982 6.52581 8.94736 6.17417 9.29899C5.82254 9.65062 5.625 10.1275 5.625 10.6248V15.0161H9.375V10.6248C9.375 10.1275 9.17746 9.65062 8.82583 9.29899C8.47419 8.94736 7.99728 8.74982 7.5 8.74982Z" fill="#F74D5A"/>
<path d="M8.33625 0.52069C8.10671 0.314088 7.80882 0.199768 7.5 0.199768C7.19118 0.199768 6.89329 0.314088 6.66375 0.52069L0 6.51819V13.0182C0 13.5486 0.210714 14.0573 0.585786 14.4324C0.960859 14.8075 1.46957 15.0182 2 15.0182H4.375V10.6251C4.375 9.79626 4.70424 9.00141 5.29029 8.41536C5.87634 7.82931 6.6712 7.50007 7.5 7.50007C8.3288 7.50007 9.12366 7.82931 9.70971 8.41536C10.2958 9.00141 10.625 9.79626 10.625 10.6251V15.0163H13C13.5304 15.0163 14.0391 14.8056 14.4142 14.4305C14.7893 14.0555 15 13.5467 15 13.0163V6.51632L8.33625 0.52069Z" fill="#F74D5A"/>
</g>
<defs>
<clipPath id="clip0_777_3435">
<rect width="15" height="15" fill="white"/>
</clipPath>
</defs>
</svg>
