<svg width="39" height="39" viewBox="0 0 39 39" fill="none" xmlns="http://www.w3.org/2000/svg">
<path d="M19.5 9C20.8924 9 22.2277 9.55312 23.2123 10.5377C24.1969 11.5223 24.75 12.8576 24.75 14.25C24.75 15.6424 24.1969 16.9777 23.2123 17.9623C22.2277 18.9469 20.8924 19.5 19.5 19.5C18.1076 19.5 16.7723 18.9469 15.7877 17.9623C14.8031 16.9777 14.25 15.6424 14.25 14.25C14.25 12.8576 14.8031 11.5223 15.7877 10.5377C16.7723 9.55312 18.1076 9 19.5 9ZM19.5 22.125C25.3013 22.125 30 24.4744 30 27.375V30H9V27.375C9 24.4744 13.6988 22.125 19.5 22.125Z" fill="#CDCDCD"/>
</svg>
