<svg width="39" height="39" viewBox="0 0 39 39" fill="none" xmlns="http://www.w3.org/2000/svg">
<path d="M19.5 11C20.8924 11 22.2277 11.5531 23.2123 12.5377C24.1969 13.5223 24.75 14.8576 24.75 16.25C24.75 17.6424 24.1969 18.9777 23.2123 19.9623C22.2277 20.9469 20.8924 21.5 19.5 21.5C18.1076 21.5 16.7723 20.9469 15.7877 19.9623C14.8031 18.9777 14.25 17.6424 14.25 16.25C14.25 14.8576 14.8031 13.5223 15.7877 12.5377C16.7723 11.5531 18.1076 11 19.5 11M19.5 24.125C25.3013 24.125 30 26.4744 30 29.375V32H9V29.375C9 26.4744 13.6987 24.125 19.5 24.125Z" fill="#6103D0"/>
</svg>
