<svg width="17" height="17" viewBox="0 0 17 17" fill="none" xmlns="http://www.w3.org/2000/svg">
<path d="M8.5 8.5C9.34538 8.5 10.1561 8.16418 10.7539 7.5664C11.3517 6.96863 11.6875 6.15788 11.6875 5.3125C11.6875 4.46712 11.3517 3.65637 10.7539 3.0586C10.1561 2.46083 9.34538 2.125 8.5 2.125C7.65462 2.125 6.84387 2.46083 6.2461 3.0586C5.64832 3.65637 5.3125 4.46712 5.3125 5.3125C5.3125 6.15788 5.64832 6.96863 6.2461 7.5664C6.84387 8.16418 7.65462 8.5 8.5 8.5ZM10.625 5.3125C10.625 5.87609 10.4011 6.41659 10.0026 6.8151C9.60409 7.21362 9.06359 7.4375 8.5 7.4375C7.93641 7.4375 7.39591 7.21362 6.9974 6.8151C6.59888 6.41659 6.375 5.87609 6.375 5.3125C6.375 4.74891 6.59888 4.20841 6.9974 3.8099C7.39591 3.41138 7.93641 3.1875 8.5 3.1875C9.06359 3.1875 9.60409 3.41138 10.0026 3.8099C10.4011 4.20841 10.625 4.74891 10.625 5.3125ZM14.875 13.8125C14.875 14.875 13.8125 14.875 13.8125 14.875H3.1875C3.1875 14.875 2.125 14.875 2.125 13.8125C2.125 12.75 3.1875 9.5625 8.5 9.5625C13.8125 9.5625 14.875 12.75 14.875 13.8125ZM13.8125 13.8083C13.8114 13.5469 13.6489 12.7606 12.9285 12.0402C12.2358 11.3475 10.9321 10.625 8.5 10.625C6.06687 10.625 4.76425 11.3475 4.0715 12.0402C3.35113 12.7606 3.18963 13.5469 3.1875 13.8083H13.8125Z" fill="#6103D0"/>
</svg>
