<svg width="30" height="30" viewBox="0 0 30 30" fill="none" xmlns="http://www.w3.org/2000/svg">
<path d="M20.3116 5C18.0251 5 16.0713 6.63219 14.9978 7.75747C13.9244 6.63219 11.9749 5 9.68945 5C5.75018 5 3 7.74982 3 11.6861C3 16.0233 6.41564 18.8267 9.72 21.5382C11.28 22.8197 12.8945 24.1438 14.1327 25.6122C14.3411 25.858 14.6465 26 14.9673 26H15.0305C15.3524 26 15.6567 25.8569 15.864 25.6122C17.1044 24.1438 18.7178 22.8186 20.2789 21.5382C23.5822 18.8278 27 16.0244 27 11.6861C27 7.74982 24.2498 5 20.3116 5Z" fill="#D0D0D0"/>
</svg>
