<svg width="13" height="13" viewBox="0 0 13 13" fill="none" xmlns="http://www.w3.org/2000/svg">
<path fill-rule="evenodd" clip-rule="evenodd" d="M8.4207 0.0193233C8.11304 -0.0706563 7.81919 0.167296 7.66915 0.449574C7.42288 0.912915 6.93393 1.22859 6.37096 1.22859C5.82796 1.22859 5.35382 0.934907 5.09987 0.498303C4.93907 0.221825 4.63606 -0.00489235 4.33198 0.0968271C4.04656 0.192303 3.76959 0.306113 3.50247 0.43685C3.16509 0.601981 3.15667 1.07579 3.30766 1.41871C3.38674 1.59831 3.43062 1.79679 3.43062 2.00548C3.43062 2.81307 2.77339 3.46775 1.96265 3.46775C1.75316 3.46775 1.55391 3.42403 1.3736 3.34526C1.02935 3.19486 0.553694 3.20325 0.38792 3.53932C0.24586 3.82731 0.12371 4.12682 0.0232579 4.43604C-0.0805896 4.75572 0.179559 5.06586 0.481434 5.21577C0.9639 5.45536 1.29532 5.95174 1.29532 6.52523C1.29532 7.09872 0.963901 7.59509 0.481437 7.83468C0.179561 7.98459 -0.080589 8.29473 0.0232586 8.61441C0.15244 9.01207 0.317506 9.39366 0.514654 9.75537C0.680064 10.0589 1.10136 10.077 1.42381 9.95022C1.59064 9.88461 1.77242 9.84857 1.96265 9.84857C2.77339 9.84857 3.43062 10.5032 3.43062 11.3108C3.43062 11.4709 3.40481 11.6249 3.3571 11.7691C3.24852 12.0971 3.29064 12.5153 3.6044 12.6624C3.86205 12.7833 4.12855 12.8885 4.40265 12.9768C4.72359 13.0803 5.03494 12.8211 5.18543 12.5204C5.42595 12.0398 5.92427 11.7096 6.50001 11.7096C7.07574 11.7096 7.57406 12.0398 7.81458 12.5204C7.96507 12.8211 8.27643 13.0803 8.59736 12.9768C8.96259 12.8591 9.3143 12.7115 9.64958 12.5368C9.93259 12.3894 9.97927 12.0172 9.892 11.7112C9.85572 11.584 9.83629 11.4497 9.83629 11.3108C9.83629 10.5032 10.4935 9.84857 11.3043 9.84857C11.4436 9.84857 11.5785 9.86792 11.7062 9.90406C12.0134 9.99099 12.387 9.94449 12.535 9.66258C12.7103 9.3286 12.8586 8.97826 12.9767 8.61446C13.0806 8.29477 12.8204 7.98461 12.5185 7.83471C12.036 7.59513 11.7046 7.09874 11.7046 6.52523C11.7046 5.95172 12.036 5.45533 12.5185 5.21575C12.8204 5.06585 13.0806 4.75569 12.9767 4.436C12.8586 4.07219 12.7103 3.72185 12.535 3.38787C12.387 3.10596 12.0134 3.05946 11.7062 3.14639C11.5785 3.18253 11.4436 3.20188 11.3043 3.20188C10.4935 3.20188 9.83629 2.5472 9.83629 1.73961C9.83629 1.60078 9.85572 1.46647 9.892 1.33922C9.97927 1.03321 9.93259 0.661074 9.64959 0.513649C9.26056 0.310991 8.84941 0.144705 8.4207 0.0193233ZM6.37103 8.14113C7.32917 8.14113 8.1059 7.36742 8.1059 6.413C8.1059 5.45857 7.32917 4.68486 6.37103 4.68486C5.41289 4.68486 4.63616 5.45857 4.63616 6.413C4.63616 7.36742 5.41289 8.14113 6.37103 8.14113Z" fill="#FEFEFE"/>
</svg>
