<svg width="17" height="17" viewBox="0 0 17 17" fill="none" xmlns="http://www.w3.org/2000/svg">
<g clip-path="url(#clip0_1128_5848)">
<path d="M14.1667 5.66684C14.1687 4.74945 13.9479 3.84529 13.5234 3.03204C13.0988 2.2188 12.4832 1.52079 11.7293 0.997985C10.9755 0.475184 10.106 0.143226 9.19551 0.030634C8.28505 -0.0819583 7.36087 0.0281816 6.50237 0.35159C5.64387 0.674999 4.87673 1.20201 4.26686 1.88733C3.65699 2.57265 3.22262 3.3958 3.00108 4.28604C2.77954 5.17629 2.77746 6.10701 2.99501 6.99823C3.21256 7.88946 3.64323 8.71455 4.25003 9.40259V15.2293C4.25002 15.5629 4.34424 15.8897 4.52184 16.1721C4.69943 16.4545 4.95318 16.681 5.25385 16.8255C5.55452 16.97 5.88989 17.0266 6.22134 16.9888C6.55278 16.9511 6.86682 16.8204 7.12728 16.612L8.27903 15.6912C8.34179 15.6411 8.41971 15.6138 8.50003 15.6138C8.58034 15.6138 8.65827 15.6411 8.72103 15.6912L9.87278 16.612C10.1332 16.8204 10.4473 16.9511 10.7787 16.9888C11.1102 17.0266 11.4455 16.97 11.7462 16.8255C12.0469 16.681 12.3006 16.4545 12.4782 16.1721C12.6558 15.8897 12.75 15.5629 12.75 15.2293V9.40259C13.6626 8.37211 14.1665 7.0433 14.1667 5.66684V5.66684ZM8.50003 1.41684C9.3406 1.41684 10.1623 1.6661 10.8612 2.1331C11.5601 2.60009 12.1048 3.26385 12.4265 4.04044C12.7482 4.81702 12.8324 5.67156 12.6684 6.49598C12.5044 7.3204 12.0996 8.07767 11.5052 8.67205C10.9109 9.26642 10.1536 9.67119 9.32916 9.83518C8.50474 9.99917 7.65021 9.915 6.87362 9.59333C6.09704 9.27166 5.43328 8.72693 4.96628 8.02802C4.49929 7.32911 4.25003 6.50741 4.25003 5.66684C4.25115 4.54002 4.69928 3.45967 5.49607 2.66288C6.29285 1.8661 7.3732 1.41797 8.50003 1.41684V1.41684ZM11.1329 15.5467C11.073 15.5764 11.0057 15.5882 10.9393 15.5806C10.8728 15.5731 10.81 15.5465 10.7582 15.5042L9.60644 14.5833C9.29297 14.3308 8.90255 14.1932 8.50003 14.1932C8.0975 14.1932 7.70709 14.3308 7.39361 14.5833L6.24257 15.5042C6.19059 15.5459 6.1279 15.5721 6.0617 15.5798C5.99549 15.5875 5.92847 15.5763 5.86832 15.5476C5.80817 15.5189 5.75734 15.4738 5.72167 15.4175C5.686 15.3612 5.66695 15.296 5.66669 15.2293V10.5671C6.52659 11.069 7.50437 11.3335 8.50003 11.3335C9.49568 11.3335 10.4735 11.069 11.3334 10.5671V15.2293C11.3341 15.2959 11.3156 15.3614 11.2801 15.4177C11.2445 15.474 11.1934 15.5188 11.1329 15.5467V15.5467Z" fill="#6103D0"/>
</g>
<defs>
<clipPath id="clip0_1128_5848">
<rect width="17" height="17" fill="white"/>
</clipPath>
</defs>
</svg>
