<svg width="18" height="18" viewBox="0 0 18 18" fill="none" xmlns="http://www.w3.org/2000/svg">
<g clip-path="url(#clip0_236_10995)">
<path d="M17.0724 7.67344L13.3599 3.96094L12.3001 5.02444L15.5251 8.24944H4.96289V9.74944H15.5251L12.3001 12.9744L13.3606 14.0349L17.0731 10.3224C17.2473 10.1483 17.3855 9.9416 17.4797 9.71408C17.574 9.48657 17.6225 9.24271 17.6225 8.99644C17.6225 8.75017 17.574 8.50631 17.4797 8.27879C17.3855 8.05127 17.2473 7.84455 17.0731 7.67044L17.0724 7.67344Z" fill="#767676"/>
<path d="M7.857 15.75C7.857 15.9489 7.77798 16.1397 7.63733 16.2803C7.49668 16.421 7.30591 16.5 7.107 16.5H2.25C2.05109 16.5 1.86032 16.421 1.71967 16.2803C1.57902 16.1397 1.5 15.9489 1.5 15.75V2.25C1.5 2.05109 1.57902 1.86032 1.71967 1.71967C1.86032 1.57902 2.05109 1.5 2.25 1.5H7.107C7.30591 1.5 7.49668 1.57902 7.63733 1.71967C7.77798 1.86032 7.857 2.05109 7.857 2.25V6.24975H9.357V2.25C9.357 1.65326 9.11995 1.08097 8.69799 0.65901C8.27603 0.237053 7.70374 0 7.107 0L2.25 0C1.65326 0 1.08097 0.237053 0.65901 0.65901C0.237053 1.08097 0 1.65326 0 2.25L0 15.75C0 16.3467 0.237053 16.919 0.65901 17.341C1.08097 17.7629 1.65326 18 2.25 18H7.107C7.70374 18 8.27603 17.7629 8.69799 17.341C9.11995 16.919 9.357 16.3467 9.357 15.75V11.7502H7.857V15.75Z" fill="#767676"/>
</g>
<defs>
<clipPath id="clip0_236_10995">
<rect width="18" height="18" fill="white"/>
</clipPath>
</defs>
</svg>
