<svg width="20" height="20" viewBox="0 0 20 20" fill="none" xmlns="http://www.w3.org/2000/svg">
<path d="M9.0133 0.990348C9.19722 -0.126285 10.8028 -0.126285 10.9867 0.990347L12.0048 7.17106C12.0744 7.59404 12.406 7.92556 12.8289 7.99524L19.0097 9.0133C20.1263 9.19722 20.1263 10.8028 19.0097 10.9867L12.8289 12.0048C12.406 12.0744 12.0744 12.406 12.0048 12.8289L10.9867 19.0097C10.8028 20.1263 9.19722 20.1263 9.0133 19.0097L7.99524 12.8289C7.92556 12.406 7.59404 12.0744 7.17106 12.0048L0.990348 10.9867C-0.126285 10.8028 -0.126285 9.19722 0.990347 9.0133L7.17106 7.99524C7.59404 7.92556 7.92556 7.59404 7.99524 7.17106L9.0133 0.990348Z" fill="#CDCDCD"/>
</svg>
