<svg width="23" height="26" viewBox="0 0 23 26" fill="none" xmlns="http://www.w3.org/2000/svg">
<circle cx="11.5" cy="12" r="10.5" stroke="#767676" stroke-width="2"/>
<path d="M11.448 14.306C11.196 14.306 10.98 14.222 10.8 14.054C10.632 13.886 10.524 13.646 10.476 13.334L9.54 7.736C9.528 7.664 9.522 7.568 9.522 7.448C9.522 6.908 9.702 6.488 10.062 6.188C10.434 5.876 10.896 5.72 11.448 5.72C12.012 5.72 12.474 5.876 12.834 6.188C13.194 6.5 13.374 6.926 13.374 7.466C13.374 7.586 13.368 7.682 13.356 7.754L12.402 13.334C12.366 13.646 12.258 13.886 12.078 14.054C11.91 14.222 11.7 14.306 11.448 14.306ZM11.448 18.608C10.944 18.608 10.524 18.44 10.188 18.104C9.864 17.768 9.702 17.354 9.702 16.862C9.702 16.37 9.864 15.956 10.188 15.62C10.524 15.284 10.944 15.116 11.448 15.116C11.94 15.116 12.348 15.284 12.672 15.62C13.008 15.956 13.176 16.37 13.176 16.862C13.176 17.354 13.008 17.768 12.672 18.104C12.348 18.44 11.94 18.608 11.448 18.608Z" fill="#767676"/>
</svg>
