<svg width="139" height="141" viewBox="0 0 159 161" fill="none" xmlns="http://www.w3.org/2000/svg">
<path d="M141.151 64.3141C145.474 81.9305 143.319 99.4776 133.213 115.855C129.262 122.211 124.24 127.749 118.767 132.822C113.486 137.647 107.258 140.903 100.458 143.009C89.8171 146.352 79.0528 147.315 68.1162 144.998C47.5623 140.658 32.3141 128.941 22.5364 110.456C11.7286 90.0975 12.4407 65.3087 24.235 45.5378C31.6403 33.1555 42.0783 24.2563 55.5046 18.9174C78.1747 9.89638 104.045 15.0775 122.164 32.0827C131.303 40.7593 137.485 51.282 141.151 64.3141Z" fill="#D0EE26"/>
<mask id="mask0_1066_4191" style="mask-type:alpha" maskUnits="userSpaceOnUse" x="14" y="14" width="130" height="133">
<path d="M141.151 64.3141C145.474 81.9305 143.319 99.4776 133.213 115.855C129.262 122.211 124.24 127.749 118.767 132.822C113.486 137.647 107.258 140.903 100.458 143.009C89.8171 146.352 79.0528 147.315 68.1162 144.998C47.5623 140.658 32.3141 128.941 22.5364 110.456C11.7286 90.0975 12.4407 65.3087 24.235 45.5378C31.6403 33.1555 42.0783 24.2563 55.5046 18.9174C78.1747 9.89638 104.045 15.0775 122.164 32.0827C131.303 40.7593 137.485 51.282 141.151 64.3141Z" fill="black"/>
</mask>
<g mask="url(#mask0_1066_4191)">
<path d="M122.961 20.5467C123.32 20.1882 123.619 19.8463 123.978 19.4878C125.488 17.8386 126.937 16.2059 128.447 14.5567C128.85 14.121 129.315 13.6688 129.829 13.3989C130.177 13.2392 130.773 13.2731 131.082 13.4502C131.347 13.7046 131.573 14.2958 131.473 14.6491C131.317 15.2784 130.947 15.8357 130.559 16.3322C128.535 18.9692 126.51 21.6062 124.392 24.1381C115.038 35.3526 105.343 46.2685 95.1353 56.7363C83.025 69.0903 70.8539 81.4608 58.5562 93.6046C45.8104 106.262 32.0665 117.884 18.0084 129.071C14.8517 131.623 11.7116 134.237 8.55494 136.789C7.90817 137.291 7.33865 137.837 6.59813 138.234C4.4868 139.589 2.52671 139.338 0.916622 137.492C0.0399974 136.425 -0.748078 135.203 -1.35385 133.932C-4.32808 128.019 -6.26926 121.826 -7.68001 115.424C-11.3249 98.8632 -9.84553 82.6736 -4.3739 66.771C1.37471 50.2061 10.9912 36.1149 23.565 24.0266C33.5013 14.4806 44.7273 6.80286 57.3256 1.29722C64.6082 -1.91817 72.1218 -4.28281 80.0804 -5.00673C86.697 -5.62751 93.1684 -5.09983 99.5 -3.16415C107.598 -0.72911 114.185 4.07301 119.716 10.2709C121.872 12.687 122.829 15.4936 122.786 18.702C122.78 19.1604 122.774 19.6187 122.829 20.0606C122.79 20.3974 122.867 20.4417 122.961 20.5467Z" fill="#6103D0"/>
<mask id="mask1_1066_4191" style="mask-type:alpha" maskUnits="userSpaceOnUse" x="-10" y="-6" width="142" height="146">
<path d="M122.961 20.5467C123.32 20.1882 123.619 19.8463 123.978 19.4878C125.488 17.8386 126.937 16.2059 128.447 14.5567C128.85 14.121 129.315 13.6688 129.829 13.3989C130.177 13.2392 130.773 13.2731 131.082 13.4502C131.347 13.7046 131.573 14.2958 131.473 14.6491C131.317 15.2784 130.947 15.8357 130.559 16.3322C128.535 18.9692 126.51 21.6062 124.392 24.1381C115.038 35.3526 105.343 46.2685 95.1353 56.7363C83.025 69.0903 70.8539 81.4608 58.5562 93.6046C45.8104 106.262 32.0665 117.884 18.0084 129.071C14.8517 131.623 11.7116 134.237 8.55494 136.789C7.90817 137.291 7.33865 137.837 6.59813 138.234C4.4868 139.589 2.52671 139.338 0.916622 137.492C0.0399974 136.425 -0.748078 135.203 -1.35385 133.932C-4.32808 128.019 -6.26926 121.826 -7.68001 115.424C-11.3249 98.8632 -9.84553 82.6736 -4.3739 66.771C1.37471 50.2061 10.9912 36.1149 23.565 24.0266C33.5013 14.4806 44.7273 6.80286 57.3256 1.29722C64.6082 -1.91817 72.1218 -4.28281 80.0804 -5.00673C86.697 -5.62751 93.1684 -5.09983 99.5 -3.16415C107.598 -0.72911 114.185 4.07301 119.716 10.2709C121.872 12.687 122.829 15.4936 122.786 18.702C122.78 19.1604 122.774 19.6187 122.829 20.0606C122.79 20.3974 122.867 20.4417 122.961 20.5467Z" fill="#6103D0"/>
</mask>
<g mask="url(#mask1_1066_4191)">
<path d="M3.83522 42.0044C3.81778 42.6615 3.81684 43.3795 3.86016 44.0201C4.26429 47.4334 5.50268 50.5552 6.68029 53.6934C9.66297 61.5612 13.69 68.9499 17.5512 76.4488C20.41 81.9363 23.2689 87.4238 25.2048 93.3573C26.5247 97.5008 27.7395 101.738 28.772 106.025C30.5681 113.366 31.8008 120.795 32.4258 128.39C32.7569 132.736 32.9665 137.116 32.5354 141.538C32.3111 144.078 31.8273 146.623 30.7749 148.997C30.1767 150.399 29.3301 151.607 28.119 152.914C28.1581 152.577 28.1087 152.395 28.2137 152.301C30.4433 149.217 31.166 145.629 31.3365 141.929C31.6131 137.417 31.3263 132.994 30.7634 128.514C29.4696 117.253 27.1426 106.271 23.6889 95.4648C22.094 90.5478 19.8635 85.9337 17.5116 81.3526C14.1407 74.6992 10.7256 68.1231 7.45981 61.3761C5.37257 57.0493 3.58919 52.6401 2.39699 48.0053C2.06726 46.7899 1.85906 45.5416 1.71163 44.2768C1.63533 43.5146 1.66408 42.6587 1.84733 41.8913C2.19735 40.2958 3.57334 39.5963 4.9639 40.3934C6.02897 40.9526 7.02198 41.727 7.78839 42.6282C9.60243 44.7456 11.3722 46.9403 13.0977 49.2123C17.9486 55.7903 22.1805 62.732 26.429 69.7344C32.7439 80.0253 39.4513 90.0794 46.5346 99.8357C47.8851 101.687 49.3242 103.385 50.8405 105.126C51.4029 105.757 52.0869 106.354 52.7379 106.83C53.8524 107.571 54.5816 107.373 55.1686 106.17C55.5342 105.353 55.806 104.431 55.8955 103.559C56.3185 101.03 56.1287 98.407 55.7124 95.9104C54.7321 89.6523 52.9012 83.625 50.9487 77.6307C47.5332 67.2055 43.2226 57.0884 39.0943 46.9219C36.5568 40.6948 34.0965 34.5121 32.2109 28.0429C30.8972 23.4411 29.705 18.8063 29.4408 13.9849C29.3871 12.8251 29.3942 11.6489 29.5393 10.5004C30.0075 7.17662 32.3228 6.0918 35.1864 7.98975C36.4555 8.81979 37.5309 9.89806 38.6063 10.9763C40.8839 13.3595 42.802 16.1011 44.5543 18.953C48.7203 25.6515 52.3559 32.5593 55.7814 39.6545C61.1674 50.8499 66.4926 62.0617 71.7736 73.3509C73.7836 77.6333 75.6112 81.9653 77.5769 86.325C78.023 87.2478 78.5464 88.2149 79.1747 89.0883C79.5054 89.5857 80.0792 90.0172 80.4541 90.4374C81.3934 90.0521 81.7755 89.2961 81.9752 88.5895C82.4025 87.0383 82.907 85.5313 83.1963 83.9523C84.0867 78.8177 83.6793 73.709 82.83 68.655C81.2737 59.5521 78.397 50.8727 75.095 42.3087C72.5193 35.7006 69.8828 29.109 67.5945 22.3576C65.471 16.214 63.7729 9.95493 63.489 3.37746C63.4631 2.07969 63.5587 0.748923 63.7316 -0.537551C63.8654 -1.48722 64.2145 -2.3648 64.7016 -3.2146C65.6757 -4.91418 67.3443 -5.49734 69.1046 -4.53965C70.2634 -3.87544 71.4552 -3.08967 72.3154 -2.08347C74.2231 0.139039 76.1031 2.49956 77.8008 4.90955C82.2212 11.3434 85.8125 18.3284 89.2658 25.2856C93.0549 32.9998 96.4187 40.8294 99.0862 48.9784C101.215 55.3816 102.918 61.9002 104.865 68.3528C105.128 69.3251 105.53 70.3252 105.998 71.5683C106.712 70.5918 106.923 69.6865 107.15 68.8418C108.094 64.867 108.624 60.8088 108.895 56.7558C109.616 45.4691 108.753 34.3515 105.846 23.3968C104.407 17.8505 102.967 12.3042 101.633 6.6641C100.584 2.31664 99.8387 -2.11326 100.176 -6.64113C100.244 -7.83387 100.511 -9.01529 100.777 -10.1967C100.905 -10.688 101.215 -11.2288 101.558 -11.6481C102.155 -12.332 102.663 -12.1436 103.203 -11.1157C103.065 -11.1435 102.882 -11.0941 102.805 -11.1383C102.667 -11.1661 102.573 -11.2712 102.358 -11.3433C101.716 -10.582 101.627 -9.70962 101.477 -8.82071C101.114 -6.30853 101.21 -3.79024 101.627 -1.29359C102.18 1.94875 102.811 5.23538 103.624 8.47255C105.151 14.5823 106.861 20.6425 108.327 26.7687C110.425 35.4637 111.015 44.372 110.644 53.3453C110.439 58.3593 109.88 63.2734 108.786 68.1371C108.475 69.3958 108.103 70.671 107.577 71.8576C107.3 72.5199 106.868 73.0937 106.012 73.0649C105.217 73.0197 104.809 72.478 104.567 71.826C103.857 69.9309 103.208 68.0193 102.62 66.0912C101.102 61.2185 99.8276 56.2799 98.2048 51.5009C92.8801 35.7221 85.9199 20.6479 77.0089 6.55967C75.3998 3.99518 73.5198 1.63467 71.5791 -0.709381C70.7962 -1.67131 69.8032 -2.44576 68.7051 -3.12645C67.5134 -3.9122 66.5576 -3.58766 65.9871 -2.3238C65.5937 -1.36895 65.1726 -0.276078 65.1768 0.701375C65.1791 3.11464 65.2422 5.51141 65.5649 7.903C66.2545 12.6089 67.4302 17.183 69.092 21.6251C71.9315 29.2056 74.8925 36.753 77.732 44.3334C80.7971 52.505 83.3153 60.825 84.6181 69.4747C85.3737 74.4237 85.5493 79.3995 84.6702 84.3353C84.4366 85.6383 84.1257 86.897 83.7375 88.1114C83.5377 88.818 83.2165 89.5575 82.8015 90.192C81.6615 92.0019 80.032 92.2482 78.6094 90.6117C77.7493 89.6055 76.9777 88.4448 76.3884 87.2346C74.2188 82.604 72.1871 78.0012 70.0782 73.3541C62.6502 57.0369 55.3438 40.6866 46.5841 24.9916C44.5731 21.427 42.3191 17.9284 39.9601 14.5235C38.7806 12.821 37.2086 11.3555 35.6975 9.87354C35.0908 9.3205 34.3182 8.87769 33.5179 8.57291C32.4085 8.091 31.7896 8.45465 31.4457 9.59179C31.2624 10.3592 31.0956 11.1873 31.1719 11.9495C31.5214 14.9209 31.7937 17.8481 32.3862 20.7537C33.7857 27.3547 36.1409 33.6312 38.6012 39.814C42.575 49.892 46.7146 59.8597 50.5668 69.9707C53.4505 77.4739 55.7874 85.1254 57.2735 93.0077C57.9207 96.3551 58.3083 99.7077 57.7793 103.048C57.5899 104.274 57.279 105.532 56.7363 106.658C55.7117 108.893 53.7507 109.36 51.7534 108.01C50.7161 107.313 49.7674 106.461 48.968 105.439C46.1784 101.889 43.3723 98.2797 40.7485 94.6204C34.5749 86.0526 29.2746 76.8564 23.7642 67.8477C19.3448 60.696 14.8203 53.638 9.61606 46.9601C8.51897 45.5615 7.37759 44.2401 6.13117 43.0125C5.58521 42.443 4.81268 42.0002 4.16167 41.5244C4.12257 41.8612 3.95676 41.9714 3.83522 42.0044Z" fill="white"/>
</g>
</g>
</svg>
