<svg width="55" height="43" viewBox="0 0 55 43" fill="none" xmlns="http://www.w3.org/2000/svg">
<path d="M6.85337 38.1581C7.52255 37.7323 7.88756 37.4889 8.3134 37.3064C9.34759 36.7589 10.3209 36.1506 11.3551 35.603C11.781 35.4205 12.2677 35.2989 12.7543 35.238C13.3018 35.1772 13.8493 35.4205 14.0319 35.9681C14.2144 36.5764 13.9102 37.0022 13.4235 37.3064C11.7201 38.4623 10.0168 39.7398 8.3134 40.8957C7.64422 41.3823 6.9142 41.8082 6.18419 42.1732C3.9333 43.3899 2.3516 42.7815 1.80409 40.2873C1.07407 36.8197 0.587395 33.2913 0.0398827 29.8237C-0.0817871 29.1546 0.100719 28.3637 0.283222 27.6945C0.404892 27.0862 0.769901 26.6603 1.62159 26.7212C2.3516 28.1204 2.95995 29.5804 3.32495 31.1621C3.68996 32.6221 4.05497 34.143 4.66332 35.603C4.96749 34.873 5.27167 34.0822 5.63667 33.3522C6.67086 31.1621 7.64421 28.9112 8.86091 26.8429C11.3551 22.4628 15.1877 20.2727 20.1762 19.9685C22.8529 19.8469 25.5296 20.2119 28.1455 20.6986C29.3014 20.8811 30.4572 21.0636 31.6131 21.2461C34.4115 21.6111 37.0274 21.0636 39.5216 19.8469C43.5367 17.9002 46.6392 14.9193 48.7076 10.965C50.1676 8.16661 51.2627 5.18571 52.0535 2.14397C52.1752 1.71813 52.1144 1.29229 52.236 0.866447C52.3577 0.562275 52.601 0.0755959 52.8444 0.0147629C53.1485 -0.0460701 53.7569 0.0755997 53.9394 0.379776C54.2436 0.744781 54.3652 1.35313 54.3652 1.8398C54.3652 2.75232 54.1827 3.66485 54.0002 4.57737C52.7835 9.80915 50.7152 14.6759 46.7001 18.4477C43.6583 21.3069 40.1908 23.3753 36.1148 24.227C33.5598 24.7745 31.0047 24.4095 28.4497 23.9836C26.868 23.7403 25.2863 23.3753 23.7046 23.1928C22.3054 23.0711 20.9062 23.1319 19.507 23.2536C17.0128 23.4969 14.9444 24.6528 13.3627 26.5995C12.6327 27.4512 12.0243 28.3637 11.4768 29.3371C10.0776 31.8921 8.73924 34.508 7.34004 37.0631C7.15754 37.3064 7.09671 37.6106 6.85337 38.1581Z" fill="#D0EE26"/>
</svg>
