<svg width="867" height="1199" viewBox="0 0 867 1199" fill="none" xmlns="http://www.w3.org/2000/svg">
<path d="M-176.274 74.2741L-441.726 339.726C-584.919 482.919 -584.919 715.081 -441.726 858.274L-176.274 1123.73C-33.0809 1266.92 199.081 1266.92 342.274 1123.73L607.726 858.274C750.919 715.081 750.919 482.919 607.726 339.726L342.274 74.2741C199.081 -68.919 -33.0809 -68.9191 -176.274 74.2741Z" fill="#6103D0"/>
<path d="M222.643 826.547C211.097 826.551 199.81 829.979 190.21 836.397C180.611 842.815 173.128 851.935 168.709 862.603C164.29 873.271 163.133 885.009 165.385 896.333C167.636 907.656 173.195 918.057 181.357 926.22C189.52 934.383 199.921 939.941 211.244 942.192C222.568 944.444 234.306 943.287 244.974 938.868C255.643 934.449 264.762 926.967 271.18 917.367C277.598 907.767 281.026 896.48 281.031 884.935C281.012 869.453 274.856 854.612 263.91 843.667C252.965 832.722 238.124 826.565 222.643 826.547Z" fill="#F74D5A"/>
<path d="M140.899 603.899C140.957 592.276 137.571 580.943 131.166 571.332C124.761 561.72 115.626 554.261 104.914 549.897C94.2015 545.532 82.3924 544.458 70.9777 546.809C59.5629 549.16 49.0544 554.831 40.7789 563.107C32.5034 571.382 26.8321 581.891 24.481 593.306C22.1299 604.72 23.2044 616.529 27.569 627.242C31.9335 637.954 39.3923 647.089 49.0036 653.494C58.6149 659.898 69.9477 663.285 81.571 663.227C97.1922 663.099 112.21 656.781 123.332 645.66C134.453 634.538 140.771 619.52 140.899 603.899Z" fill="#F74D5A"/>
<path d="M462.693 604.984C462.657 589.352 456.431 574.371 445.378 563.318C434.325 552.265 419.345 546.04 403.712 546.003L222.128 545.954C206.731 546.334 192.092 552.715 181.333 563.736C170.573 574.757 164.546 589.546 164.536 604.947C164.526 620.347 170.534 635.141 181.279 646.173C192.024 657.204 206.655 663.599 222.051 663.993L403.701 663.977C419.334 663.937 434.316 657.708 445.37 646.653C456.425 635.599 462.654 620.617 462.693 604.984Z" fill="#D0EE26"/>
<path d="M-2.61807 606.184C-2.66363 590.601 -8.87416 575.669 -19.893 564.65C-30.9118 553.632 -45.8434 547.421 -61.4261 547.376L-242.254 547.438C-249.968 547.438 -257.607 548.957 -264.734 551.909C-271.86 554.861 -278.336 559.188 -283.791 564.643C-289.245 570.097 -293.572 576.573 -296.524 583.699C-299.476 590.826 -300.995 598.465 -300.995 606.179C-300.995 613.893 -299.475 621.531 -296.523 628.658C-293.571 635.785 -289.244 642.261 -283.789 647.715C-278.334 653.17 -271.859 657.497 -264.732 660.449C-257.605 663.401 -249.967 664.921 -242.253 664.921L-61.3584 664.924C-45.7909 664.886 -30.8722 658.685 -19.8645 647.677C-8.85679 636.67 -2.65596 621.751 -2.61807 606.184Z" fill="#D0EE26"/>
<path d="M-60.9218 379.851C-49.3763 379.839 -38.0913 376.405 -28.4929 369.982C-18.8945 363.56 -11.4135 354.437 -6.99554 343.767C-2.57756 333.098 -1.42083 321.36 -3.67154 310.037C-5.92224 298.715 -11.4794 288.316 -19.6406 280.155C-27.8018 271.994 -38.2007 266.436 -49.5232 264.186C-60.8457 261.935 -72.5835 263.092 -83.2531 267.51C-93.9228 271.928 -103.045 279.409 -109.468 289.007C-115.89 298.605 -119.325 309.891 -119.337 321.436C-119.304 336.922 -113.14 351.761 -102.193 362.708C-91.2466 373.654 -76.4078 379.818 -60.9218 379.851Z" fill="#F74D5A"/>
<path d="M315.136 461.298C315.078 472.921 318.465 484.254 324.869 493.865C331.274 503.476 340.409 510.935 351.122 515.3C361.834 519.664 373.643 520.739 385.058 518.388C396.472 516.037 406.981 510.365 415.256 502.09C423.532 493.814 429.203 483.306 431.554 471.891C433.906 460.476 432.831 448.667 428.466 437.955C424.102 427.243 416.643 418.107 407.032 411.703C397.42 405.298 386.088 401.911 374.464 401.97C358.843 402.098 343.825 408.415 332.704 419.537C321.582 430.659 315.265 445.676 315.136 461.298Z" fill="#F74D5A"/>
<path d="M231.106 508.983C215.569 509.014 200.691 502.879 189.736 491.924C178.782 480.97 172.647 466.092 172.678 450.555L173.304 301.669C173.327 293.965 174.866 286.333 177.834 279.207C180.803 272.081 185.143 265.602 190.606 260.139C196.069 254.676 202.548 250.336 209.674 247.368C216.799 244.399 224.432 242.86 232.135 242.838C239.839 242.816 247.463 244.311 254.571 247.238C261.68 250.166 268.134 254.468 273.566 259.9C278.998 265.331 283.3 271.786 286.228 278.895C289.155 286.003 290.65 293.627 290.628 301.331L289.871 450.217C289.788 465.746 283.559 480.646 272.547 491.659C261.535 502.671 246.635 508.9 231.106 508.983Z" fill="#D0EE26"/>
<path d="M431.753 743.858C431.767 728.325 425.633 713.464 414.691 702.522C403.749 691.58 388.888 685.446 373.355 685.46L224.31 686.092C216.62 686.121 209 687.665 201.885 690.634C194.769 693.604 188.298 697.942 182.84 703.4C177.382 708.858 173.044 715.329 170.074 722.445C167.105 729.56 165.561 737.181 165.532 744.87C165.503 752.56 166.988 760.168 169.904 767.261C172.82 774.355 177.108 780.793 182.525 786.21C187.942 791.627 194.38 795.915 201.473 798.831C208.567 801.747 216.175 803.232 223.865 803.203L372.909 802.702C388.443 802.598 403.351 796.35 414.376 785.325C425.402 774.299 431.649 759.391 431.753 743.858Z" fill="#D0EE26"/>
<path d="M-57.3341 955.192C-72.9116 955.154 -87.84 948.95 -98.8548 937.935C-109.87 926.92 -116.074 911.991 -116.112 896.414L-116.11 746.734C-116.109 731.145 -109.916 716.194 -98.8928 705.171C-87.8693 694.147 -72.9185 687.954 -57.3292 687.954C-41.74 687.954 -26.7894 694.146 -15.7663 705.169C-4.74328 716.192 1.44927 731.143 1.44899 746.732L1.51209 896.346C1.46645 911.939 -4.7481 926.88 -15.7741 937.906C-26.8001 948.932 -41.7413 955.147 -57.3341 955.192Z" fill="#D0EE26"/>
<path d="M-0.405684 464.798C-0.443534 449.24 -6.64057 434.331 -17.6416 423.329C-28.6426 412.328 -43.5524 406.131 -59.1104 406.094L-208.801 406.294C-216.51 406.294 -224.144 407.812 -231.266 410.763C-238.389 413.713 -244.861 418.037 -250.312 423.489C-261.322 434.499 -267.507 449.431 -267.507 465.001C-267.508 472.71 -265.989 480.344 -263.039 487.466C-260.089 494.589 -255.765 501.06 -250.314 506.512C-239.304 517.521 -224.372 523.706 -208.803 523.705L-59.5728 523.965C-51.7948 523.995 -44.0878 522.484 -36.8961 519.521C-29.7044 516.558 -23.1702 512.201 -17.6701 506.701C-12.1701 501.201 -7.81294 494.667 -4.84987 487.475C-1.8868 480.283 -0.376379 472.576 -0.405684 464.798Z" fill="#D0EE26"/>
<path d="M81.4482 218.621C96.8899 218.678 111.677 224.832 122.59 235.745C133.502 246.658 139.657 261.445 139.713 276.886L140.065 463.507C140.056 479.038 133.877 493.937 122.889 504.926C111.9 515.914 97.0015 522.093 81.4703 522.102C65.939 522.111 51.0474 515.949 40.0715 504.973C29.0956 493.997 22.9344 479.106 22.9433 463.575L23.0505 277.019C23.1317 261.562 29.3125 246.755 40.2486 235.819C51.1846 224.883 65.9913 218.702 81.4482 218.621Z" fill="#D0EE26"/>
<path d="M82.6616 686.716C98.2632 686.757 113.216 692.973 124.249 704.007C135.283 715.04 141.499 729.993 141.54 745.594L141.564 933.346C141.542 944.984 138.075 956.353 131.599 966.021C125.124 975.689 115.93 983.222 105.177 987.67C94.4242 992.118 82.5943 993.282 71.1792 991.015C59.7641 988.748 49.275 983.151 41.0348 974.931C35.555 969.481 31.2118 962.998 28.2572 955.856C25.3026 948.715 23.7955 941.059 23.8232 933.331L23.733 745.645C23.7764 730.028 29.9984 715.065 41.0398 704.023C52.0812 692.982 67.0447 686.76 82.6616 686.716Z" fill="#D0EE26"/>
</svg>
