<svg width="80" height="80" viewBox="0 0 80 80" fill="none" xmlns="http://www.w3.org/2000/svg">
<path d="M77.1266 54.8888C80.0296 47.586 80.701 39.5861 79.0558 31.9016C77.4106 24.217 73.5228 17.1932 67.8844 11.719C62.246 6.24476 55.1104 2.56619 47.3806 1.14877C39.6508 -0.268639 31.6742 0.638822 24.4603 3.75631C17.2464 6.87381 11.1195 12.0612 6.85477 18.6621C2.59007 25.2629 0.379333 32.9805 0.502324 40.8382C0.625315 48.696 3.07651 56.3406 7.5457 62.8048C12.0149 69.2689 18.3012 74.262 25.6091 77.1522C35.3952 81.0046 46.3086 80.8252 55.9628 76.6532C65.617 72.4811 73.2262 64.6559 77.1266 54.8888Z" fill="#D0EE26"/>
</svg>
