<svg width="86" height="28" viewBox="0 0 86 28" fill="none" xmlns="http://www.w3.org/2000/svg">
<path fill-rule="evenodd" clip-rule="evenodd" d="M66.4843 6.97823C67.479 7.69236 68.4075 8.45306 69.4254 9.06429C70.5001 9.70998 71.6422 10.2405 72.8456 10.643C73.8395 10.9759 74.8003 11.3989 75.8724 11.4085C76.6256 11.9145 77.5118 11.7674 78.3394 11.8881C78.6787 11.9373 79.0452 11.7727 79.3901 11.8038C79.7623 11.8374 80.1141 11.6892 80.4446 11.7028C81.6683 11.7526 82.8281 11.3093 84.0397 11.3165C84.1288 11.317 84.2182 11.2142 84.3418 11.1384C84.6451 11.3887 84.9343 11.6274 85.2935 11.9237C84.9359 12.1329 84.6797 12.2827 84.267 12.5239L85.3904 12.6453C85.2332 12.9245 85.1363 13.0961 85.0053 13.329C85.0386 13.3985 85.0988 13.5245 85.2008 13.7368C84.9982 14.1236 84.8481 14.6719 84.4978 15.0173C84.0102 15.4974 83.392 15.8593 82.7899 16.2025C82.5333 16.3493 82.165 16.4028 81.8683 16.3578C81.2086 16.259 80.5701 16.6237 79.9095 16.4027C79.813 16.3702 79.6613 16.5013 79.5161 16.5651C79.4856 16.4356 79.4539 16.3005 79.4213 16.1625L75.2193 15.7082C75.6104 15.9792 76.0553 15.9602 76.4828 16.0173C76.9675 16.0809 77.456 16.1216 77.9419 16.1783C78.3735 16.2287 78.8046 16.2874 79.2124 16.5419C78.3654 16.4503 77.517 16.3632 76.6701 16.2658C75.664 16.1504 74.6245 16.1547 73.7595 15.5C72.7465 15.4059 71.8759 14.9193 70.9572 14.5417C70.4865 14.3483 70.1561 14.0831 69.8607 13.7129C69.8019 13.7602 69.7438 13.8077 69.6356 13.8956C69.0035 13.461 68.3923 12.9446 67.6967 12.5961C67.2161 12.3558 67.0787 11.7881 66.5553 11.632C66.3631 11.575 66.2033 11.4115 65.9288 11.2306C65.6142 11.0882 65.0491 11.3829 64.7085 10.8874C64.6497 10.9344 64.5912 10.9818 64.4977 11.0571C64.415 10.9973 64.3227 10.9299 64.2258 10.8594C64.1594 10.9835 64.0941 11.106 64.0216 11.2414L63.6497 11.2012C63.7531 11.0662 63.822 10.9753 63.8923 10.8838C63.8324 10.8481 63.7573 10.7683 63.7157 10.7834C63.42 10.8902 63.1293 11.0125 62.8405 11.1375C62.5817 11.2495 62.3269 11.3711 62.0105 11.5161C61.9396 11.4584 61.8312 11.3704 61.706 11.2686C61.6313 11.3892 61.546 11.5267 61.4586 11.6689C61.4052 11.6077 61.3573 11.5534 61.3043 11.4926C61.054 11.6543 60.8039 11.9485 60.5487 11.9538C59.849 11.9677 59.2949 12.3919 58.6394 12.5198C58.3075 12.5843 57.9996 12.8352 57.709 13.0412C56.7447 13.7256 55.7128 14.2615 54.581 14.5874C54.487 14.4785 54.4143 14.3948 54.3407 14.3094C54.1968 14.4259 54.0511 14.5447 53.8634 14.6973L52.9002 14.5932C52.7358 14.8071 52.5858 15.0037 52.4171 15.223L52.0235 15.1804C51.877 15.3292 51.7625 15.5522 51.6044 15.588C50.8729 15.7539 50.1736 16.1828 49.3702 15.6218C49.0282 15.3832 48.4452 15.4881 47.9496 15.6216C48.3968 15.6974 48.8435 15.7736 49.2906 15.8499L49.2708 15.9794L47.7631 15.8164C47.7306 15.6783 47.6989 15.5432 47.6452 15.3154C47.0626 15.7648 46.5431 15.5104 46.0423 15.225C45.3384 14.8227 44.6594 14.4131 44.0673 13.8171C43.3019 13.0469 42.4814 12.3046 41.5036 11.781C41.4106 11.7314 41.3378 11.6452 41.1832 11.5147L39.8687 11.3726C39.8326 11.3021 39.8 11.2648 39.8081 11.2473C39.8227 11.2164 39.8657 11.2006 39.8915 11.1739C39.9352 11.1278 39.9752 11.0779 40.052 10.9879L39.2482 10.901C39.2108 10.7336 39.1808 10.5992 39.1438 10.4327C39.0593 10.409 38.9585 10.3814 38.6908 10.3066C38.8064 10.5166 38.859 10.6119 38.9173 10.7169C38.8528 10.7737 38.7731 10.8446 38.6528 10.9516C38.8986 11.0286 39.1194 11.0975 39.3402 11.1672C37.8438 11.2433 36.3735 11.6759 34.9066 11.267C34.553 12.002 33.963 12.1307 33.2353 12.0249C32.1862 12.8006 31.1345 13.6184 30.0408 14.3751C28.9007 15.1634 27.6341 15.781 26.2699 15.9447C25.1201 16.0825 23.8875 16.3783 22.7705 15.6731C22.6843 15.6188 22.5497 15.6388 22.4371 15.6316C21.2917 15.564 20.3622 14.9586 19.4328 14.3844C19.0438 14.1445 18.766 13.727 18.3826 13.4739C17.8565 13.1267 17.2581 12.9233 16.6605 12.7012C15.5911 12.3044 14.4858 12.3157 13.3966 12.1592C12.3907 12.0146 11.3859 12.0722 10.3895 12.2787C10.2842 12.3006 10.1529 12.286 10.0575 12.2399C9.96449 12.1944 9.90246 12.086 9.80491 11.9826C9.7456 12.1111 9.68897 12.2342 9.59099 12.4469C9.4208 12.3602 9.25419 12.2751 9.06779 12.1804C9.03987 12.2536 9.00225 12.3512 8.9388 12.518C8.00012 12.6803 7.16075 13.4732 6.06634 13.1761L5.69813 13.4721C5.76041 13.5589 5.8227 13.6456 5.9085 13.7653C5.33175 14.1058 4.69129 14.369 4.20311 14.8037C3.68445 15.2659 3.19932 15.7417 2.47402 16.1307C2.40406 16.2461 2.25967 16.4833 2.08797 16.7652C1.92046 16.8387 1.69434 16.938 1.49142 17.0269C1.35518 17.6975 1.35518 17.6975 0.973612 18.067L0.104983 16.9878L0.317194 15.0248C0.369482 14.9958 0.708461 14.9162 0.735305 14.7758C0.845943 14.2033 1.46074 14.0927 1.67629 13.6365C1.90488 13.1521 2.37178 12.8988 2.75147 12.5582C3.26829 12.0938 3.77855 11.6207 4.27114 11.1298C5.38128 10.025 7.54258 8.98919 9.43376 8.7641C9.88067 8.71118 10.3125 8.5433 10.7579 8.46605C11.1782 8.39317 11.5968 8.71047 12.0543 8.39789C12.2432 8.26916 12.6347 8.43605 12.6754 8.44045C12.9952 8.65041 13.1531 8.75414 13.3387 8.87586C13.1696 9.06381 13.0763 9.16787 12.9422 9.31752L14.3148 9.4659C13.9629 9.29871 13.8377 9.23934 13.6324 9.14175C14.3178 8.56342 14.96 8.13749 15.8241 8.73792C15.9067 8.79517 16.0316 8.79993 16.1389 8.81319C17.5257 8.98311 18.6853 9.58715 19.7399 10.5065C20.1671 10.8785 20.7501 11.2052 21.3754 11.1861C21.9886 11.1674 22.4846 11.516 23.0552 11.6064C24.7874 11.8808 26.3689 11.3981 27.8646 10.5886C28.6572 10.1594 29.4391 9.68939 30.1576 9.14755C31.4059 8.20638 32.8359 7.71146 34.3218 7.38923C35.39 7.15767 36.505 7.1528 37.5875 7.00861C38.722 6.85795 39.7922 7.16736 40.8924 7.16048C41.6057 7.15594 42.1271 7.53559 42.6207 7.92141C43.7111 8.77211 44.7324 9.71034 45.814 10.573C46.3119 10.9697 46.9489 11.136 47.5566 11.2909C48.6696 11.5741 49.789 11.3893 50.8762 11.1331C51.7537 10.9272 52.6019 10.5923 53.4587 10.3012C54.8959 9.81291 56.2351 9.11361 57.5981 8.4519C58.9709 7.78539 60.425 7.23684 62.0036 7.17045C62.4858 7.15008 62.9655 6.9978 63.4398 6.88075C64.4766 6.62413 65.4872 6.92878 66.4843 6.97823Z" fill="#F74D5A"/>
</svg>
