<svg width="86" height="13" viewBox="0 0 86 13" fill="none" xmlns="http://www.w3.org/2000/svg">
<path fill-rule="evenodd" clip-rule="evenodd" d="M66.4847 0.978231C67.4795 1.69236 68.408 2.45306 69.4259 3.06429C70.5006 3.70998 71.6427 4.24047 72.8461 4.64303C73.84 4.97586 74.8008 5.39885 75.8729 5.40852C76.626 5.91446 77.5122 5.76738 78.3399 5.8881C78.6791 5.93727 79.0456 5.77275 79.3906 5.80379C79.7627 5.83735 80.1145 5.68916 80.4451 5.70281C81.6687 5.7526 82.8286 5.3093 84.0402 5.31654C84.1293 5.31701 84.2187 5.21419 84.3423 5.1384C84.6456 5.38866 84.9348 5.62739 85.294 5.92369C84.9364 6.13292 84.6802 6.2827 84.2675 6.52389L85.3909 6.64533C85.2337 6.92454 85.1368 7.09613 85.0058 7.32902C85.0391 7.39845 85.0992 7.52452 85.2013 7.73677C84.9987 8.12357 84.8486 8.67185 84.4983 9.01728C84.0107 9.49741 83.3924 9.85928 82.7904 10.2025C82.5337 10.3493 82.1655 10.4028 81.8687 10.3578C81.2091 10.259 80.5706 10.6237 79.91 10.4027C79.8135 10.3702 79.6618 10.5013 79.5166 10.5651C79.486 10.4356 79.4544 10.3005 79.4218 10.1625L75.2198 9.7082C75.6109 9.9792 76.0558 9.96022 76.4833 10.0173C76.968 10.0809 77.4565 10.1216 77.9424 10.1783C78.374 10.2287 78.8051 10.2874 79.2129 10.5419C78.3658 10.4503 77.5174 10.3632 76.6706 10.2658C75.6644 10.1504 74.6249 10.1547 73.76 9.49998C72.747 9.40589 71.8763 8.91932 70.9577 8.54171C70.487 8.34835 70.1566 8.08307 69.8612 7.71285C69.8023 7.76023 69.7443 7.8077 69.6361 7.89557C69.004 7.46103 68.3928 6.9446 67.6972 6.59611C67.2166 6.35585 67.0792 5.78815 66.5558 5.63199C66.3636 5.57497 66.2038 5.41147 65.9292 5.23056C65.6147 5.08823 65.0495 5.38293 64.709 4.88742C64.6502 4.93439 64.5917 4.98181 64.4982 5.05711C64.4155 4.99734 64.3232 4.92987 64.2263 4.8594C64.1599 4.98346 64.0946 5.10597 64.0221 5.24144L63.6502 5.20124C63.7535 5.06618 63.8225 4.97532 63.8928 4.88376C63.8329 4.84813 63.7578 4.76835 63.7162 4.78343C63.4205 4.8902 63.1298 5.01251 62.8409 5.13751C62.5822 5.24952 62.3274 5.37112 62.011 5.51606C61.9401 5.4584 61.8317 5.37045 61.7065 5.26859C61.6318 5.38925 61.5465 5.52668 61.4591 5.66887C61.4057 5.60769 61.3578 5.55336 61.3048 5.49263C61.0545 5.65429 60.8044 5.94847 60.5492 5.9538C59.8495 5.96773 59.2953 6.39193 58.6399 6.5198C58.308 6.58432 58.0001 6.83517 57.7095 7.04123C56.7452 7.72564 55.7132 8.2615 54.5815 8.58743C54.4874 8.47852 54.4148 8.39485 54.3412 8.30939C54.1973 8.42591 54.0516 8.54472 53.8639 8.69733L52.9007 8.5932C52.7363 8.80707 52.5863 9.00375 52.4176 9.22298L52.0239 9.18042C51.8775 9.32915 51.763 9.55216 51.6049 9.58799C50.8733 9.75387 50.1741 10.1828 49.3707 9.62185C49.0286 9.38323 48.4457 9.4881 47.9501 9.62159C48.3973 9.69742 48.844 9.77363 49.2911 9.84987L49.2712 9.97938L47.7636 9.8164C47.7311 9.67832 47.6994 9.54325 47.6457 9.31539C47.0631 9.76483 46.5435 9.51036 46.0428 9.22501C45.3389 8.82271 44.6599 8.4131 44.0678 7.81707C43.3024 7.04692 42.4819 6.30455 41.504 5.78098C41.4111 5.73135 41.3383 5.64517 41.1837 5.51472L39.8692 5.37262C39.8331 5.30205 39.8005 5.26478 39.8086 5.24733C39.8232 5.21641 39.8662 5.20064 39.892 5.17385C39.9357 5.12775 39.9757 5.07791 40.0525 4.98789L39.2486 4.901C39.2113 4.73365 39.1813 4.59917 39.1443 4.43269C39.0598 4.40897 38.959 4.38142 38.6913 4.30665C38.8069 4.51662 38.8595 4.61188 38.9177 4.71691C38.8533 4.77369 38.7735 4.84464 38.6532 4.95162C38.8991 5.0286 39.1199 5.09747 39.3407 5.16716C37.8443 5.24329 36.374 5.67593 34.9071 5.26698C34.5535 6.00199 33.9634 6.13068 33.2358 6.02494C32.1867 6.80058 31.135 7.61844 30.0413 8.3751C28.9012 9.1634 27.6346 9.78097 26.2704 9.94471C25.1206 10.0825 23.888 10.3783 22.771 9.67307C22.6848 9.61876 22.5502 9.63878 22.4376 9.63161C21.2922 9.56403 20.3627 8.95862 19.4333 8.38445C19.0443 8.14451 18.7665 7.72703 18.3831 7.47394C17.8569 7.12668 17.2586 6.92327 16.661 6.70119C15.5915 6.30436 14.4863 6.3157 13.3971 6.15921C12.3912 6.01464 11.3863 6.07224 10.39 6.27866C10.2847 6.30061 10.1534 6.28599 10.058 6.23985C9.96498 6.19439 9.90295 6.08603 9.8054 5.98258C9.74609 6.11115 9.68946 6.23418 9.59148 6.44689C9.42129 6.36017 9.25468 6.27508 9.06828 6.18036C9.04036 6.25358 9.00273 6.35117 8.93928 6.51803C8.00061 6.68028 7.16124 7.47318 6.06683 7.17614L5.69862 7.47213C5.7609 7.55885 5.82319 7.64558 5.90899 7.76525C5.33224 8.10577 4.69178 8.369 4.2036 8.80366C3.68494 9.26586 3.19981 9.74168 2.47451 10.1307C2.40454 10.2461 2.26016 10.4833 2.08846 10.7652C1.92095 10.8387 1.69482 10.938 1.49191 11.0269C1.35567 11.6975 1.35567 11.6975 0.9741 12.067L0.105471 10.9878L0.317682 9.02475C0.36997 8.99583 0.708949 8.91624 0.735793 8.77582C0.846431 8.20327 1.46123 8.09267 1.67678 7.63645C1.90537 7.15206 2.37227 6.89882 2.75196 6.55825C3.26878 6.09377 3.77904 5.62066 4.27163 5.12981C5.38177 4.02497 7.54307 2.98919 9.43425 2.7641C9.88116 2.71118 10.313 2.54331 10.7584 2.46605C11.1787 2.39317 11.5973 2.71047 12.0548 2.39789C12.2437 2.26916 12.6351 2.43605 12.6759 2.44045C12.9957 2.65041 13.1536 2.75414 13.3392 2.87586C13.1701 3.06381 13.0768 3.16787 12.9427 3.31752L14.3153 3.4659C13.9634 3.29871 13.8381 3.23934 13.6329 3.14175C14.3182 2.56342 14.9605 2.13749 15.8246 2.73792C15.9072 2.79517 16.032 2.79993 16.1393 2.81319C17.5262 2.98311 18.6858 3.58715 19.7404 4.50648C20.1676 4.87846 20.7506 5.20519 21.3759 5.18613C21.9891 5.16743 22.4851 5.51601 23.0557 5.60644C24.7879 5.88077 26.3694 5.39807 27.8651 4.58863C28.6576 4.15937 29.4396 3.68939 30.1581 3.14755C31.4064 2.20638 32.8364 1.71146 34.3223 1.38923C35.3905 1.15767 36.5055 1.1528 37.588 1.00861C38.7225 0.857952 39.7927 1.16737 40.8928 1.16048C41.6062 1.15594 42.1275 1.53559 42.6212 1.92141C43.7116 2.77211 44.7329 3.71034 45.8145 4.573C46.3124 4.96969 46.9493 5.13604 47.5571 5.29089C48.6701 5.57411 49.7895 5.38932 50.8767 5.13314C51.7542 4.92721 52.6024 4.59229 53.4592 4.30121C54.8964 3.81291 56.2356 3.11361 57.5986 2.4519C58.9713 1.78539 60.4255 1.23684 62.0041 1.17045C62.4863 1.15008 62.966 0.997795 63.4403 0.880752C64.477 0.624126 65.4877 0.928776 66.4847 0.978231" fill="#D0EE26"/>
</svg>
