<svg width="54" height="78" viewBox="0 0 54 78" fill="none" xmlns="http://www.w3.org/2000/svg">
<path d="M53.0004 26V23.7673C52.9944 19.1895 51.1732 14.801 47.9363 11.5641C44.6993 8.32718 40.3108 6.50602 35.7331 6.5H31.8754V0H22.1254V6.5H18.2676C14.1222 6.49382 10.1129 7.97921 6.9721 10.6848C3.83133 13.3904 1.76875 17.1356 1.16114 21.2363C0.553528 25.337 1.44145 29.5194 3.6627 33.0195C5.88395 36.5196 9.29027 39.1038 13.2594 40.3L22.1254 42.7245V61.75H18.2676C16.2747 61.7474 14.3642 60.9546 12.955 59.5454C11.5458 58.1362 10.753 56.2257 10.7504 54.2327V52H1.00038V54.2327C1.0064 58.8105 2.82756 63.199 6.06449 66.4359C9.30143 69.6728 13.6899 71.494 18.2676 71.5H22.1254V78H31.8754V71.5H35.7331C39.8786 71.5062 43.8879 70.0208 47.0287 67.3152C50.1694 64.6096 52.232 60.8644 52.8396 56.7637C53.4472 52.663 52.5593 48.4806 50.3381 44.9805C48.1168 41.4804 44.7105 38.8962 40.7414 37.7L31.8754 35.282V16.25H35.7331C37.726 16.2526 39.6366 17.0454 41.0458 18.4546C42.455 19.8638 43.2478 21.7743 43.2504 23.7673V26H53.0004ZM37.9919 47.0568C39.7064 47.5971 41.1707 48.7336 42.1194 50.2606C43.0681 51.7875 43.4385 53.6037 43.1634 55.3802C42.8884 57.1567 41.9861 58.7759 40.62 59.9444C39.254 61.1129 37.5145 61.7535 35.7169 61.75H31.8754V45.3862L37.9919 47.0568ZM22.1254 32.6138L16.0089 30.9432C14.2957 30.4034 12.8323 29.2681 11.8835 27.7429C10.9348 26.2177 10.5632 24.4032 10.8361 22.6278C11.1091 20.8524 12.0084 19.2334 13.3715 18.0635C14.7346 16.8937 16.4714 16.2504 18.2676 16.25H22.1254V32.6138Z" fill="#6103D0"/>
</svg>
