<svg width="46" height="46" viewBox="0 0 46 46" fill="none" xmlns="http://www.w3.org/2000/svg">
<path d="M43.8695 31.1772C45.5264 27.0091 45.9096 22.4431 44.9706 18.0571C44.0316 13.6711 41.8126 9.66222 38.5944 6.53778C35.3763 3.41334 31.3036 1.31378 26.8918 0.504781C22.4799 -0.304216 17.9273 0.213723 13.8099 1.99305C9.69256 3.77237 6.19556 6.7331 3.76146 10.5006C1.32736 14.268 0.065569 18.6729 0.135767 23.1577C0.205965 27.6426 1.605 32.0058 4.15581 35.6953C6.70663 39.3847 10.2946 42.2345 14.4656 43.8841C20.0511 46.0829 26.28 45.9805 31.7901 43.5993C37.3003 41.2181 41.6433 36.7518 43.8695 31.1772Z" fill="#D0EE26"/>
</svg>
