<svg width="18" height="18" viewBox="0 0 18 18" fill="none" xmlns="http://www.w3.org/2000/svg">
<g clip-path="url(#clip0_828_6160)">
<path d="M3.05018 13.5H14.7922C15.1536 13.5 15.5096 13.413 15.8302 13.2463C16.1509 13.0795 16.4266 12.8381 16.6342 12.5422C16.8417 12.2464 16.9749 11.9049 17.0226 11.5467C17.0703 11.1885 17.0309 10.8241 16.9079 10.4843L14.7689 4.5705C14.4036 3.25628 13.6179 2.09789 12.5319 1.2725C11.4459 0.447112 10.1195 0.000159059 8.75543 7.62983e-10V7.62983e-10C7.33548 -2.21942e-05 5.95797 0.484191 4.85034 1.37269C3.74271 2.26119 2.9712 3.50085 2.66318 4.887L0.900681 10.587C0.796911 10.9235 0.773583 11.2797 0.832573 11.6269C0.891563 11.9741 1.03122 12.3026 1.24032 12.5859C1.44942 12.8693 1.72211 13.0996 2.03645 13.2584C2.3508 13.4172 2.69802 13.4999 3.05018 13.5Z" fill="#CDCDCD"/>
<path d="M5.32422 15C5.49635 15.8477 5.95627 16.6099 6.62603 17.1573C7.29578 17.7047 8.1342 18.0038 8.99922 18.0038C9.86424 18.0038 10.7027 17.7047 11.3724 17.1573C12.0422 16.6099 12.5021 15.8477 12.6742 15H5.32422Z" fill="#CDCDCD"/>
</g>
<defs>
<clipPath id="clip0_828_6160">
<rect width="18" height="18" fill="white"/>
</clipPath>
</defs>
</svg>
