<svg width="107" height="93" viewBox="0 0 107 93" fill="none" xmlns="http://www.w3.org/2000/svg">
<path fill-rule="evenodd" clip-rule="evenodd" d="M33.368 1.67028C30.8289 3.40357 29.1622 6.32054 29.1622 9.6268C29.1622 13.5564 31.5167 16.9361 34.8919 18.4322C32.9916 20.2015 30.4431 21.2838 27.6419 21.2838C21.7645 21.2838 17 16.5192 17 10.6419C17 4.76454 21.7645 0 27.6419 0C29.7499 0 31.7148 0.612923 33.368 1.67028Z" fill="#6103D0"/>
<path d="M40.08 0.29844H26C33.1106 2.41045 36.6982 9.00581 43.28 18.2842H58C49.2938 7.6573 43.5593 -0.0937512 40.08 0.29844Z" fill="#D0EE26"/>
<path fill-rule="evenodd" clip-rule="evenodd" d="M75.2491 1.92702C77.5967 3.68257 79.1162 6.48455 79.1162 9.64144C79.1162 13.3772 76.9883 16.616 73.8784 18.2118C75.8005 20.1112 78.4424 21.2838 81.3581 21.2838C87.2355 21.2838 92 16.5192 92 10.6419C92 4.76454 87.2355 0 81.3581 0C79.0849 0 76.9781 0.71277 75.2491 1.92702Z" fill="#D0EE26"/>
<path d="M69.92 0.29844H84C76.8894 2.41045 73.3018 9.00581 66.72 18.2842H52C60.7062 7.6573 66.4407 -0.0937512 69.92 0.29844Z" fill="#6103D0"/>
<path d="M3 38.2842H104V87.2842C104 90.0456 101.761 92.2842 99 92.2842H8C5.23857 92.2842 3 90.0456 3 87.2842V38.2842Z" fill="#A359FC"/>
<path d="M3 38.2842H104V42.2842H3V38.2842Z" fill="#6103D0"/>
<path d="M3 38.2842H56V87.2842C56 90.0456 53.7614 92.2842 51 92.2842H8C5.23858 92.2842 3 90.0456 3 87.2842V38.2842Z" fill="#DABAFF"/>
<path d="M3 38.2842H56V42.2842H3V38.2842Z" fill="#B778FF"/>
<path d="M0 23.2842C0 20.5228 2.23858 18.2842 5 18.2842H102C104.761 18.2842 107 20.5228 107 23.2842V39.2842H0V23.2842Z" fill="#A359FC"/>
<path d="M0 23.2842C0 20.5228 2.23858 18.2842 5 18.2842H54C56.7614 18.2842 59 20.5228 59 23.2842V39.2842H0V23.2842Z" fill="#DABAFF"/>
<rect width="14" height="74" transform="matrix(-1 0 0 1 89 18.2842)" fill="#6103D0"/>
<rect width="14" height="74" transform="matrix(-1 0 0 1 34 18.2842)" fill="#D0EE26"/>
</svg>
