<svg width="127" height="96" viewBox="0 0 127 96" fill="none" xmlns="http://www.w3.org/2000/svg">
<rect x="0.5" y="0.5" width="126" height="95" rx="9.5" fill="white" stroke="black"/>
<path d="M0 22.5576H20.4247V96.0002H10C4.47715 96.0002 0 91.5231 0 86.0002V22.5576Z" fill="#F74D5A"/>
<path d="M0 10C0 4.47716 4.47715 0 10 0H117C122.523 0 127 4.47715 127 10V12.5902H0V10Z" fill="#6103D0"/>
<rect y="12.5898" width="127" height="9.96721" fill="#DABAFF"/>
<ellipse cx="110.769" cy="6.3081" rx="2.88041" ry="2.88525" fill="#D0EE26"/>
<ellipse cx="103.699" cy="6.3081" rx="2.88041" ry="2.88525" fill="#D0EE26"/>
<ellipse cx="117.839" cy="6.3081" rx="2.88041" ry="2.88525" fill="#D0EE26"/>
<path d="M7.59318 17.0488L6.80762 17.7046L7.59318 18.3603" stroke="#39437B" stroke-width="1.5" stroke-linecap="round" stroke-linejoin="round"/>
<path d="M8.93801 17.5735C8.93801 18.4643 8.21748 19.1842 7.33131 19.1842C6.44514 19.1842 5.72461 18.4643 5.72461 17.5735C5.72461 16.6828 6.44514 15.9629 7.33131 15.9629C8.21748 15.9629 8.93801 16.6828 8.93801 17.5735Z" stroke="#39437B" stroke-width="1.5"/>
<path d="M13.6168 17.0488L14.4023 17.7046L13.6168 18.3603" stroke="#39437B" stroke-width="1.5" stroke-linecap="round" stroke-linejoin="round"/>
<path d="M12.2719 17.5735C12.2719 18.4643 12.9925 19.1842 13.8787 19.1842C14.7648 19.1842 15.4854 18.4643 15.4854 17.5735C15.4854 16.6828 14.7648 15.9629 13.8787 15.9629C12.9925 15.9629 12.2719 16.6828 12.2719 17.5735Z" stroke="#39437B" stroke-width="1.5"/>
<rect x="25.6621" y="50.3604" width="96.101" height="8.13115" fill="#C4C4C4"/>
<rect x="25.6621" y="60.8525" width="96.101" height="8.13115" fill="#C4C4C4"/>
<rect x="25.6621" y="27.0166" width="31.6845" height="20.9836" fill="#C4C4C4"/>
<rect x="59.7031" y="27.0166" width="31.1608" height="20.9836" fill="#C4C4C4"/>
<rect x="93.2207" y="27.0166" width="28.8041" height="20.9836" fill="#C4C4C4"/>
</svg>
