<svg width="124" height="107" viewBox="0 0 124 107" fill="none" xmlns="http://www.w3.org/2000/svg">
<rect x="1.5" y="22.5039" width="74.2776" height="52.4813" rx="6.5" stroke="#D0EE26" stroke-width="3"/>
<rect x="31.2227" y="1.5" width="74.2776" height="52.4813" rx="6.5" stroke="#D0EE26" stroke-width="3"/>
<path d="M29.7227 21.0039H69.2781C73.6964 21.0039 77.2781 24.5856 77.2781 29.0039V55.4816H37.7227C33.3044 55.4816 29.7227 51.8999 29.7227 47.4816V21.0039Z" fill="#F74D5A"/>
<path d="M119.545 65.8615C116.272 51.066 111.347 43.1691 104.041 41.012C102.506 40.5616 100.913 40.3365 99.3121 40.3439C97.1967 40.3439 95.3544 40.8593 93.4056 41.4055C91.0572 42.0643 88.3894 42.8127 84.4996 42.8127C80.6098 42.8127 77.9404 42.0659 75.5874 41.407C73.6371 40.8593 71.7963 40.3439 69.6871 40.3439C68.0321 40.3382 66.3844 40.5625 64.7912 41.0105C57.5239 43.1583 52.6018 51.0521 49.2813 65.8523C45.7109 81.7788 47.4683 91.8343 54.2096 94.1673C55.1336 94.493 56.1059 94.661 57.0856 94.6641C61.7038 94.6641 65.4069 90.8175 67.9373 87.6683C70.7965 84.1041 74.1432 82.2957 84.4996 82.2957C93.7497 82.2957 97.5778 83.5501 100.884 87.6683C102.963 90.2574 104.927 92.0689 106.887 93.2091C109.493 94.7243 112.097 95.0607 114.626 94.192C118.61 92.8326 120.894 89.2391 121.415 83.5085C121.812 79.1141 121.201 73.3419 119.545 65.8615ZM77.0933 65.0314H72.1558V69.9689C72.1558 70.6237 71.8957 71.2516 71.4327 71.7146C70.9698 72.1776 70.3418 72.4377 69.6871 72.4377C69.0323 72.4377 68.4044 72.1776 67.9414 71.7146C67.4784 71.2516 67.2183 70.6237 67.2183 69.9689V65.0314H62.2808C61.6261 65.0314 60.9981 64.7713 60.5352 64.3083C60.0722 63.8454 59.8121 63.2174 59.8121 62.5627C59.8121 61.9079 60.0722 61.28 60.5352 60.817C60.9981 60.354 61.6261 60.0939 62.2808 60.0939H67.2183V55.1564C67.2183 54.5017 67.4784 53.8737 67.9414 53.4108C68.4044 52.9478 69.0323 52.6877 69.6871 52.6877C70.3418 52.6877 70.9698 52.9478 71.4327 53.4108C71.8957 53.8737 72.1558 54.5017 72.1558 55.1564V60.0939H77.0933C77.7481 60.0939 78.376 60.354 78.839 60.817C79.302 61.28 79.5621 61.9079 79.5621 62.5627C79.5621 63.2174 79.302 63.8454 78.839 64.3083C78.376 64.7713 77.7481 65.0314 77.0933 65.0314ZM90.0543 65.6486C89.4439 65.6486 88.8473 65.4676 88.3398 65.1285C87.8323 64.7894 87.4368 64.3075 87.2032 63.7436C86.9697 63.1797 86.9086 62.5592 87.0276 61.9606C87.1467 61.362 87.4406 60.8122 87.8722 60.3806C88.3038 59.949 88.8536 59.6551 89.4522 59.536C90.0508 59.417 90.6713 59.4781 91.2352 59.7116C91.7991 59.9452 92.281 60.3407 92.6201 60.8482C92.9592 61.3557 93.1402 61.9523 93.1402 62.5627C93.1402 63.3811 92.8151 64.166 92.2364 64.7448C91.6576 65.3235 90.8727 65.6486 90.0543 65.6486ZM96.8433 72.4377C96.2327 72.4377 95.6357 72.2565 95.1281 71.9171C94.6204 71.5776 94.2249 71.0952 93.9916 70.5309C93.7582 69.9666 93.6976 69.3457 93.8173 68.7469C93.937 68.148 94.2316 67.5982 94.664 67.1669C95.0963 66.7357 95.6469 66.4424 96.246 66.3242C96.8452 66.206 97.4659 66.2682 98.0296 66.5029C98.5934 66.7377 99.0748 67.1344 99.4129 67.6429C99.7511 68.1514 99.9308 68.7488 99.9293 69.3594C99.9272 70.1765 99.6012 70.9595 99.0227 71.5365C98.4442 72.1136 97.6604 72.4377 96.8433 72.4377ZM96.8433 58.8595C96.233 58.8595 95.6364 58.6786 95.1289 58.3395C94.6214 58.0004 94.2259 57.5184 93.9923 56.9545C93.7587 56.3907 93.6976 55.7702 93.8167 55.1716C93.9358 54.573 94.2297 54.0231 94.6612 53.5915C95.0928 53.1599 95.6427 52.866 96.2413 52.747C96.8399 52.6279 97.4604 52.689 98.0243 52.9226C98.5881 53.1561 99.0701 53.5517 99.4092 54.0592C99.7483 54.5666 99.9293 55.1633 99.9293 55.7736C99.9293 56.5921 99.6041 57.377 99.0254 57.9557C98.4467 58.5344 97.6618 58.8595 96.8433 58.8595ZM103.632 65.6486C103.022 65.6486 102.425 65.4676 101.918 65.1285C101.41 64.7894 101.015 64.3075 100.781 63.7436C100.548 63.1797 100.487 62.5592 100.606 61.9606C100.725 61.362 101.019 60.8122 101.45 60.3806C101.882 59.949 102.432 59.6551 103.03 59.536C103.629 59.417 104.249 59.4781 104.813 59.7116C105.377 59.9452 105.859 60.3407 106.198 60.8482C106.537 61.3557 106.718 61.9523 106.718 62.5627C106.718 63.3811 106.393 64.166 105.814 64.7448C105.236 65.3235 104.451 65.6486 103.632 65.6486Z" fill="#6103D0"/>
</svg>
