<svg width="616" height="140" viewBox="0 0 616 140" fill="none" xmlns="http://www.w3.org/2000/svg">
<path d="M45.3584 54.1157C45.5666 53.4061 45.7747 52.7556 45.9531 52.1051C46.8154 48.7639 47.6479 45.4226 48.7778 42.1405C50.8294 36.1973 53.2081 30.3723 55.6462 24.5769C58.352 18.1606 60.9982 11.7442 63.6742 5.3279C64.0905 4.29301 64.596 3.31725 65.1015 2.31192C65.2799 1.92754 65.5475 1.57271 65.8448 1.27703C66.3503 0.774368 67.0044 0.981347 67.0639 1.69099C67.1233 2.28236 67.1233 2.87372 67.0044 3.46509C66.5584 5.9784 66.1124 8.49172 65.5772 10.9755C64.15 17.7466 62.693 24.5178 61.5632 31.3481C60.909 35.3694 60.3441 39.3907 59.7792 43.412C59.2737 46.9602 58.8574 50.4788 58.4114 54.027C58.352 54.5593 58.3222 55.0915 58.2628 55.7716C58.5601 55.5942 58.7088 55.5055 58.8574 55.3872C59.4521 54.8549 60.0765 54.3227 60.6117 53.7314C66.38 47.7585 72.8916 42.6432 79.7601 37.9714C80.1763 37.7053 80.5926 37.4392 81.0386 37.2026C81.2765 37.0844 81.5441 37.0252 81.7819 36.9956C82.2577 36.9661 82.6145 37.2913 82.6145 37.7644C82.6145 38.1192 82.555 38.5332 82.3766 38.8585C81.9603 39.7159 81.5441 40.5734 81.0089 41.3422C79.2249 43.8259 77.4409 46.3097 75.5974 48.7343C72.8322 52.3712 70.0075 55.9785 67.2125 59.6155C66.6773 60.2955 66.2016 61.0347 65.7556 61.8035C65.1015 62.8976 65.2204 63.4298 66.3205 64.1099C67.1531 64.6125 68.0153 65.056 68.9073 65.4404C72.1186 66.8006 75.4487 67.865 78.7789 68.8704C87.2529 71.4724 95.6377 74.3405 103.844 77.6817C104.35 77.8887 104.885 78.0661 105.39 78.2731C105.598 78.3618 105.777 78.4505 105.955 78.5984C106.342 78.9532 106.223 79.5741 105.717 79.7515C105.539 79.8107 105.331 79.8402 105.152 79.8402C103.16 79.8698 101.168 79.929 99.176 79.8698C94.1213 79.6628 89.0667 79.1306 84.0417 78.5097C76.6678 77.6226 69.3533 76.4103 62.0984 74.9023C61.1172 74.6953 60.136 74.5475 59.1548 74.3701C58.9466 74.3405 58.7385 74.311 58.5006 74.3405C57.7276 74.3405 57.4005 74.5179 57.1923 75.2867C56.9247 76.3216 56.6869 77.3565 56.5085 78.3914C55.7057 82.8562 55.0515 87.3506 54.5461 91.8746C54.219 94.8018 53.9811 97.7587 53.6243 100.686C53.3567 102.992 52.9702 105.269 52.6431 107.575C52.5539 108.078 52.3755 108.581 52.1971 109.054C52.0187 109.556 51.6917 110 51.0673 110C50.5023 109.97 50.1752 109.556 50.0266 109.054C49.759 108.255 49.4914 107.428 49.3724 106.6C49.0751 104.619 48.7778 102.608 48.6588 100.627C48.3615 95.7776 48.1236 90.958 47.975 86.1087C47.8858 83.1815 47.975 80.2542 48.0047 77.3269C48.0047 77.0608 48.0047 76.7651 48.0047 76.3807C47.5587 76.4399 47.1722 76.4399 46.7856 76.499C42.504 77.2087 38.3116 78.1844 34.0894 79.1897C26.8939 80.8456 19.6984 82.6492 12.4137 84.0981C9.32143 84.719 6.19942 85.2513 3.0774 85.8131C2.5422 85.9018 1.97726 85.9313 1.44206 85.9905C1.29339 85.9905 1.14472 86.02 1.02579 85.9905C0.401386 85.9609 0.0743177 85.7835 0.0148507 85.3991C-0.0743498 84.8964 0.252719 84.6599 0.60952 84.4529C1.41232 84.0094 2.1854 83.5954 2.9882 83.1815C10.5702 79.1897 18.3307 75.5528 26.0317 71.8272C29.6294 70.0827 33.1677 68.1607 36.706 66.2979C37.152 66.0614 37.5385 65.7953 38.0737 65.47C37.8061 65.1152 37.598 64.7604 37.3304 64.4942C35.8437 62.8976 34.4165 61.2417 32.8109 59.7633C29.5997 56.8065 26.329 53.9383 23.0286 51.0702C19.0145 47.5811 15.06 44.0329 11.4325 40.1595C10.6297 39.302 9.85664 38.3854 9.1133 37.4687C8.90516 37.2322 8.72676 36.9365 8.54836 36.6408C8.31049 36.2269 8.34023 35.8425 8.60783 35.5764C8.8457 35.3102 9.23223 35.2807 9.6485 35.4877C9.79717 35.5468 9.94584 35.6651 10.0945 35.7242C12.0866 36.8478 14.0193 38.0305 16.0412 39.095C22.0474 42.2292 28.0833 45.3635 33.9705 48.7639C36.7952 50.3901 39.7388 51.7503 42.8311 52.8443C43.3068 53.0217 43.7231 53.2583 44.1691 53.4948C44.5556 53.6722 44.9124 53.8792 45.3584 54.1157Z" fill="#F74D5A"/>
<rect x="216.85" width="50.7931" height="104.126" rx="25.3966" transform="rotate(44.3975 216.85 0)" fill="#D0EE26"/>
<path d="M389.65 89.7353C391.783 98.4281 390.72 107.087 385.733 115.168C383.784 118.304 381.306 121.037 378.605 123.54C375.999 125.921 372.926 127.527 369.57 128.567C364.32 130.217 359.008 130.692 353.611 129.548C343.469 127.407 335.945 121.625 331.12 112.504C325.787 102.458 326.139 90.2261 331.959 80.4703C335.613 74.3603 340.763 69.969 347.388 67.3346C358.575 62.8832 371.341 65.4398 380.281 73.8309C384.791 78.1124 387.841 83.3047 389.65 89.7353Z" fill="#D0EE26"/>
<mask id="mask0_1624_3395" style="mask-type:alpha" maskUnits="userSpaceOnUse" x="327" y="65" width="64" height="66">
<path d="M389.65 89.7353C391.783 98.4281 390.72 107.087 385.733 115.168C383.784 118.304 381.306 121.037 378.605 123.54C375.999 125.921 372.926 127.527 369.57 128.567C364.32 130.217 359.008 130.692 353.611 129.548C343.469 127.407 335.945 121.625 331.12 112.504C325.787 102.458 326.139 90.2261 331.959 80.4703C335.613 74.3603 340.763 69.969 347.388 67.3346C358.575 62.8832 371.341 65.4398 380.281 73.8309C384.791 78.1124 387.841 83.3047 389.65 89.7353Z" fill="black"/>
</mask>
<g mask="url(#mask0_1624_3395)">
<path d="M380.674 68.1384C380.852 67.9615 380.999 67.7928 381.176 67.6159C381.921 66.8021 382.636 65.9965 383.381 65.1827C383.58 64.9677 383.81 64.7445 384.063 64.6114C384.235 64.5326 384.529 64.5493 384.682 64.6367C384.812 64.7622 384.924 65.0539 384.874 65.2283C384.798 65.5388 384.615 65.8138 384.424 66.0588C383.425 67.36 382.426 68.6612 381.38 69.9106C376.765 75.4443 371.981 80.8307 366.944 85.996C360.968 92.092 354.962 98.1961 348.894 104.188C342.605 110.434 335.823 116.169 328.886 121.689C327.328 122.948 325.779 124.238 324.221 125.498C323.902 125.745 323.621 126.015 323.256 126.21C322.214 126.879 321.247 126.755 320.452 125.844C320.02 125.318 319.631 124.715 319.332 124.088C317.864 121.17 316.906 118.114 316.21 114.955C314.412 106.783 315.142 98.7946 317.842 90.9476C320.678 82.7737 325.424 75.8204 331.628 69.8555C336.531 65.1451 342.07 61.3566 348.287 58.6399C351.881 57.0532 355.588 55.8864 359.515 55.5292C362.78 55.2229 365.973 55.4833 369.098 56.4384C373.094 57.64 376.344 60.0096 379.073 63.0679C380.137 64.2601 380.609 65.645 380.588 67.2282C380.585 67.4543 380.582 67.6805 380.609 67.8985C380.59 68.0647 380.628 68.0866 380.674 68.1384Z" fill="#6103D0"/>
<mask id="mask1_1624_3395" style="mask-type:alpha" maskUnits="userSpaceOnUse" x="315" y="55" width="70" height="72">
<path d="M380.674 68.1384C380.852 67.9615 380.999 67.7928 381.176 67.6159C381.921 66.8021 382.636 65.9965 383.381 65.1827C383.58 64.9677 383.81 64.7445 384.063 64.6114C384.235 64.5326 384.529 64.5493 384.682 64.6367C384.812 64.7622 384.924 65.0539 384.874 65.2283C384.798 65.5388 384.615 65.8138 384.424 66.0588C383.425 67.36 382.426 68.6612 381.38 69.9106C376.765 75.4443 371.981 80.8307 366.944 85.996C360.968 92.092 354.962 98.1961 348.894 104.188C342.605 110.434 335.823 116.169 328.886 121.689C327.328 122.948 325.779 124.238 324.221 125.498C323.902 125.745 323.621 126.015 323.256 126.21C322.214 126.879 321.247 126.755 320.452 125.844C320.02 125.318 319.631 124.715 319.332 124.088C317.864 121.17 316.906 118.114 316.21 114.955C314.412 106.783 315.142 98.7946 317.842 90.9476C320.678 82.7737 325.424 75.8204 331.628 69.8555C336.531 65.1451 342.07 61.3566 348.287 58.6399C351.881 57.0532 355.588 55.8864 359.515 55.5292C362.78 55.2229 365.973 55.4833 369.098 56.4384C373.094 57.64 376.344 60.0096 379.073 63.0679C380.137 64.2601 380.609 65.645 380.588 67.2282C380.585 67.4543 380.582 67.6805 380.609 67.8985C380.59 68.0647 380.628 68.0866 380.674 68.1384Z" fill="#6103D0"/>
</mask>
<g mask="url(#mask1_1624_3395)">
<path d="M321.892 78.7264C321.884 79.0506 321.883 79.4049 321.905 79.721C322.104 81.4053 322.715 82.9457 323.296 84.4943C324.768 88.3766 326.755 92.0225 328.661 95.7228C330.071 98.4305 331.482 101.138 332.437 104.066C333.088 106.111 333.688 108.202 334.197 110.317C335.084 113.939 335.692 117.605 336 121.353C336.164 123.497 336.267 125.658 336.054 127.841C335.944 129.094 335.705 130.35 335.186 131.521C334.89 132.213 334.473 132.809 333.875 133.454C333.894 133.288 333.87 133.198 333.922 133.152C335.022 131.63 335.379 129.859 335.463 128.034C335.599 125.807 335.458 123.625 335.18 121.414C334.542 115.857 333.393 110.438 331.689 105.106C330.902 102.68 329.802 100.403 328.641 98.1425C326.978 94.8594 325.292 91.6145 323.681 88.2852C322.651 86.1502 321.771 83.9745 321.183 81.6875C321.02 81.0878 320.917 80.4718 320.845 79.8477C320.807 79.4716 320.821 79.0492 320.912 78.6706C321.084 77.8833 321.763 77.5381 322.449 77.9314C322.975 78.2073 323.465 78.5895 323.843 79.0341C324.738 80.079 325.612 81.162 326.463 82.283C328.857 85.5289 330.945 88.9543 333.041 92.4096C336.157 97.4876 339.467 102.449 342.962 107.263C343.629 108.177 344.339 109.014 345.087 109.873C345.364 110.184 345.702 110.479 346.023 110.714C346.573 111.08 346.933 110.982 347.223 110.389C347.403 109.986 347.537 109.531 347.581 109.1C347.79 107.852 347.696 106.558 347.491 105.326C347.007 102.238 346.104 99.2638 345.14 96.3059C343.455 91.1617 341.328 86.1695 339.291 81.1528C338.039 78.0801 336.825 75.0293 335.894 71.8371C335.246 69.5664 334.658 67.2794 334.527 64.9003C334.501 64.328 334.504 63.7476 334.576 63.1809C334.807 61.5408 335.95 61.0055 337.363 61.942C337.989 62.3516 338.519 62.8837 339.05 63.4157C340.174 64.5917 341.12 65.9445 341.985 67.3517C344.041 70.6571 345.835 74.0657 347.525 77.5668C350.183 83.0911 352.81 88.6235 355.416 94.1941C356.408 96.3073 357.31 98.4448 358.28 100.596C358.5 101.051 358.758 101.529 359.068 101.96C359.231 102.205 359.515 102.418 359.7 102.625C360.163 102.435 360.352 102.062 360.45 101.713C360.661 100.948 360.91 100.204 361.053 99.4253C361.492 96.8917 361.291 94.3708 360.872 91.8769C360.104 87.3852 358.685 83.1024 357.055 78.8765C355.784 75.6158 354.483 72.3632 353.354 69.0318C352.306 66.0002 351.468 62.9117 351.328 59.6661C351.315 59.0257 351.363 58.3691 351.448 57.7343C351.514 57.2657 351.686 56.8326 351.927 56.4133C352.407 55.5746 353.231 55.2869 354.099 55.7594C354.671 56.0872 355.259 56.4749 355.684 56.9714C356.625 58.0681 357.553 59.2329 358.39 60.4221C360.572 63.5969 362.344 67.0436 364.048 70.4765C365.917 74.2831 367.577 78.1466 368.894 82.1676C369.944 85.3272 370.784 88.5438 371.745 91.7278C371.875 92.2076 372.073 92.7011 372.304 93.3145C372.656 92.8327 372.76 92.3859 372.873 91.9691C373.338 90.0078 373.6 88.0053 373.733 86.0053C374.09 80.436 373.664 74.9501 372.229 69.5446C371.519 66.8077 370.809 64.0709 370.15 61.2879C369.633 59.1426 369.265 56.9567 369.431 54.7225C369.465 54.1339 369.596 53.551 369.728 52.968C369.791 52.7256 369.944 52.4587 370.113 52.2518C370.408 51.9143 370.658 52.0073 370.925 52.5145C370.857 52.5008 370.767 52.5252 370.729 52.5034C370.66 52.4896 370.614 52.4378 370.508 52.4022C370.191 52.7779 370.147 53.2084 370.073 53.647C369.894 54.8866 369.942 56.1292 370.147 57.3612C370.42 58.9611 370.732 60.5829 371.133 62.1802C371.886 65.1951 372.73 68.1855 373.453 71.2084C374.489 75.4989 374.78 79.8946 374.597 84.3224C374.495 86.7966 374.22 89.2214 373.68 91.6214C373.526 92.2425 373.343 92.8717 373.083 93.4573C372.947 93.7841 372.734 94.0672 372.311 94.053C371.919 94.0307 371.718 93.7634 371.598 93.4417C371.248 92.5065 370.928 91.5633 370.637 90.6119C369.888 88.2075 369.259 85.7705 368.459 83.4123C365.831 75.6264 362.397 68.1881 358 61.2363C357.206 59.9709 356.278 58.8061 355.32 57.6495C354.934 57.1748 354.444 56.7927 353.902 56.4568C353.314 56.0691 352.842 56.2292 352.561 56.8528C352.367 57.324 352.159 57.8633 352.161 58.3456C352.162 59.5364 352.193 60.7191 352.353 61.8992C352.693 64.2213 353.273 66.4784 354.093 68.6703C355.494 72.4108 356.955 76.1351 358.356 79.8756C359.869 83.9078 361.111 88.0133 361.754 92.2814C362.127 94.7235 362.214 97.1788 361.78 99.6143C361.665 100.257 361.511 100.878 361.32 101.478C361.221 101.826 361.063 102.191 360.858 102.504C360.295 103.397 359.491 103.519 358.789 102.711C358.365 102.215 357.984 101.642 357.693 101.045C356.623 98.76 355.62 96.4888 354.58 94.1957C350.914 86.144 347.309 78.0761 342.987 70.3315C341.994 68.5725 340.882 66.8462 339.718 65.166C339.136 64.326 338.36 63.6028 337.615 62.8716C337.315 62.5987 336.934 62.3802 336.539 62.2298C335.992 61.992 335.686 62.1714 335.517 62.7325C335.426 63.1112 335.344 63.5198 335.382 63.8959C335.554 65.3622 335.688 66.8066 335.981 68.2403C336.671 71.4975 337.834 74.5946 339.048 77.6455C341.008 82.6184 343.051 87.537 344.952 92.5262C346.375 96.2286 347.528 100.004 348.261 103.894C348.581 105.545 348.772 107.2 348.511 108.848C348.417 109.453 348.264 110.074 347.996 110.629C347.491 111.732 346.523 111.963 345.537 111.297C345.026 110.952 344.557 110.532 344.163 110.028C342.786 108.276 341.402 106.495 340.107 104.689C337.061 100.462 334.445 95.9239 331.726 91.4786C329.546 87.9496 327.313 84.4669 324.745 81.1717C324.204 80.4816 323.64 79.8296 323.025 79.2238C322.756 78.9428 322.375 78.7243 322.054 78.4895C322.034 78.6557 321.952 78.7101 321.892 78.7264Z" fill="white"/>
</g>
</g>
<rect x="469" y="91.2454" width="86.4909" height="205.127" rx="43.2455" transform="rotate(-30 469 91.2454)" fill="#F74D5A"/>
</svg>
