<svg width="655" height="140" viewBox="0 0 655 140" fill="none" xmlns="http://www.w3.org/2000/svg">
<g clip-path="url(#clip0_1624_3396)">
<path d="M84.3584 54.1157C84.5666 53.4061 84.7747 52.7556 84.9531 52.1051C85.8154 48.7639 86.6479 45.4226 87.7778 42.1405C89.8294 36.1973 92.2081 30.3723 94.6462 24.5769C97.352 18.1606 99.9982 11.7442 102.674 5.3279C103.091 4.29301 103.596 3.31725 104.101 2.31192C104.28 1.92754 104.547 1.57271 104.845 1.27703C105.35 0.774368 106.004 0.981347 106.064 1.69099C106.123 2.28236 106.123 2.87372 106.004 3.46509C105.558 5.9784 105.112 8.49172 104.577 10.9755C103.15 17.7466 101.693 24.5178 100.563 31.3481C99.909 35.3694 99.3441 39.3907 98.7792 43.412C98.2737 46.9602 97.8574 50.4788 97.4114 54.027C97.352 54.5593 97.3222 55.0915 97.2628 55.7716C97.5601 55.5942 97.7088 55.5055 97.8574 55.3872C98.4521 54.8549 99.0765 54.3227 99.6117 53.7314C105.38 47.7585 111.892 42.6432 118.76 37.9714C119.176 37.7053 119.593 37.4392 120.039 37.2026C120.276 37.0844 120.544 37.0252 120.782 36.9956C121.258 36.9661 121.614 37.2913 121.614 37.7644C121.614 38.1192 121.555 38.5332 121.377 38.8585C120.96 39.7159 120.544 40.5734 120.009 41.3422C118.225 43.8259 116.441 46.3097 114.597 48.7343C111.832 52.3712 109.007 55.9785 106.213 59.6155C105.677 60.2955 105.202 61.0347 104.756 61.8035C104.101 62.8976 104.22 63.4298 105.321 64.1099C106.153 64.6125 107.015 65.056 107.907 65.4404C111.119 66.8006 114.449 67.865 117.779 68.8704C126.253 71.4724 134.638 74.3405 142.844 77.6817C143.35 77.8887 143.885 78.0661 144.39 78.2731C144.598 78.3618 144.777 78.4505 144.955 78.5984C145.342 78.9532 145.223 79.5741 144.717 79.7515C144.539 79.8107 144.331 79.8402 144.152 79.8402C142.16 79.8698 140.168 79.929 138.176 79.8698C133.121 79.6628 128.067 79.1306 123.042 78.5097C115.668 77.6226 108.353 76.4103 101.098 74.9023C100.117 74.6953 99.136 74.5475 98.1548 74.3701C97.9466 74.3405 97.7385 74.311 97.5006 74.3405C96.7276 74.3405 96.4005 74.5179 96.1923 75.2867C95.9247 76.3216 95.6869 77.3565 95.5085 78.3914C94.7057 82.8562 94.0515 87.3506 93.5461 91.8746C93.219 94.8018 92.9811 97.7587 92.6243 100.686C92.3567 102.992 91.9702 105.269 91.6431 107.575C91.5539 108.078 91.3755 108.581 91.1971 109.054C91.0187 109.556 90.6917 110 90.0673 110C89.5023 109.97 89.1752 109.556 89.0266 109.054C88.759 108.255 88.4914 107.428 88.3724 106.6C88.0751 104.619 87.7778 102.608 87.6588 100.627C87.3615 95.7776 87.1236 90.958 86.975 86.1087C86.8858 83.1815 86.975 80.2542 87.0047 77.3269C87.0047 77.0608 87.0047 76.7651 87.0047 76.3807C86.5587 76.4399 86.1722 76.4399 85.7856 76.499C81.504 77.2087 77.3116 78.1844 73.0894 79.1897C65.8939 80.8456 58.6984 82.6492 51.4137 84.0981C48.3214 84.719 45.1994 85.2513 42.0774 85.8131C41.5422 85.9018 40.9773 85.9313 40.4421 85.9905C40.2934 85.9905 40.1447 86.02 40.0258 85.9905C39.4014 85.9609 39.0743 85.7835 39.0149 85.3991C38.9257 84.8964 39.2527 84.6599 39.6095 84.4529C40.4123 84.0094 41.1854 83.5954 41.9882 83.1815C49.5702 79.1897 57.3307 75.5528 65.0317 71.8272C68.6294 70.0827 72.1677 68.1607 75.706 66.2979C76.152 66.0614 76.5385 65.7953 77.0737 65.47C76.8061 65.1152 76.598 64.7604 76.3304 64.4942C74.8437 62.8976 73.4165 61.2417 71.8109 59.7633C68.5997 56.8065 65.329 53.9383 62.0286 51.0702C58.0145 47.5811 54.06 44.0329 50.4325 40.1595C49.6297 39.302 48.8566 38.3854 48.1133 37.4687C47.9052 37.2322 47.7268 36.9365 47.5484 36.6408C47.3105 36.2269 47.3402 35.8425 47.6078 35.5764C47.8457 35.3102 48.2322 35.2807 48.6485 35.4877C48.7972 35.5468 48.9458 35.6651 49.0945 35.7242C51.0866 36.8478 53.0193 38.0305 55.0412 39.095C61.0474 42.2292 67.0833 45.3635 72.9705 48.7639C75.7952 50.3901 78.7388 51.7503 81.8311 52.8443C82.3068 53.0217 82.7231 53.2583 83.1691 53.4948C83.5556 53.6722 83.9124 53.8792 84.3584 54.1157Z" fill="#F74D5A"/>
<rect x="255.85" width="50.7931" height="104.126" rx="25.3966" transform="rotate(44.3975 255.85 0)" fill="#D0EE26"/>
<path d="M428.65 89.7353C430.783 98.4281 429.72 107.087 424.733 115.168C422.784 118.304 420.306 121.037 417.605 123.54C414.999 125.921 411.926 127.527 408.57 128.567C403.32 130.217 398.008 130.692 392.611 129.548C382.469 127.407 374.945 121.625 370.12 112.504C364.787 102.458 365.139 90.2261 370.959 80.4703C374.613 74.3603 379.763 69.969 386.388 67.3346C397.575 62.8832 410.341 65.4398 419.281 73.8309C423.791 78.1124 426.841 83.3047 428.65 89.7353Z" fill="#D0EE26"/>
<mask id="mask0_1624_3396" style="mask-type:alpha" maskUnits="userSpaceOnUse" x="366" y="65" width="64" height="66">
<path d="M428.65 89.7353C430.783 98.4281 429.72 107.087 424.733 115.168C422.784 118.304 420.306 121.037 417.605 123.54C414.999 125.921 411.926 127.527 408.57 128.567C403.32 130.217 398.008 130.692 392.611 129.548C382.469 127.407 374.945 121.625 370.12 112.504C364.787 102.458 365.139 90.2261 370.959 80.4703C374.613 74.3603 379.763 69.969 386.388 67.3346C397.575 62.8832 410.341 65.4398 419.281 73.8309C423.791 78.1124 426.841 83.3047 428.65 89.7353Z" fill="black"/>
</mask>
<g mask="url(#mask0_1624_3396)">
<path d="M419.674 68.1384C419.852 67.9615 419.999 67.7928 420.176 67.6159C420.921 66.8021 421.636 65.9965 422.381 65.1827C422.58 64.9677 422.81 64.7445 423.063 64.6114C423.235 64.5326 423.529 64.5493 423.682 64.6367C423.812 64.7622 423.924 65.0539 423.874 65.2283C423.798 65.5388 423.615 65.8138 423.424 66.0588C422.425 67.36 421.426 68.6612 420.38 69.9106C415.765 75.4443 410.981 80.8307 405.944 85.996C399.968 92.092 393.962 98.1961 387.894 104.188C381.605 110.434 374.823 116.169 367.886 121.689C366.328 122.948 364.779 124.238 363.221 125.498C362.902 125.745 362.621 126.015 362.256 126.21C361.214 126.879 360.247 126.755 359.452 125.844C359.02 125.318 358.631 124.715 358.332 124.088C356.864 121.17 355.906 118.114 355.21 114.955C353.412 106.783 354.142 98.7946 356.842 90.9476C359.678 82.7737 364.424 75.8204 370.628 69.8555C375.531 65.1451 381.07 61.3566 387.287 58.6399C390.881 57.0532 394.588 55.8864 398.515 55.5292C401.78 55.2229 404.973 55.4833 408.098 56.4384C412.094 57.64 415.344 60.0096 418.073 63.0679C419.137 64.2601 419.609 65.645 419.588 67.2282C419.585 67.4543 419.582 67.6805 419.609 67.8985C419.59 68.0647 419.628 68.0866 419.674 68.1384Z" fill="#6103D0"/>
<mask id="mask1_1624_3396" style="mask-type:alpha" maskUnits="userSpaceOnUse" x="354" y="55" width="70" height="72">
<path d="M419.674 68.1384C419.852 67.9615 419.999 67.7928 420.176 67.6159C420.921 66.8021 421.636 65.9965 422.381 65.1827C422.58 64.9677 422.81 64.7445 423.063 64.6114C423.235 64.5326 423.529 64.5493 423.682 64.6367C423.812 64.7622 423.924 65.0539 423.874 65.2283C423.798 65.5388 423.615 65.8138 423.424 66.0588C422.425 67.36 421.426 68.6612 420.38 69.9106C415.765 75.4443 410.981 80.8307 405.944 85.996C399.968 92.092 393.962 98.1961 387.894 104.188C381.605 110.434 374.823 116.169 367.886 121.689C366.328 122.948 364.779 124.238 363.221 125.498C362.902 125.745 362.621 126.015 362.256 126.21C361.214 126.879 360.247 126.755 359.452 125.844C359.02 125.318 358.631 124.715 358.332 124.088C356.864 121.17 355.906 118.114 355.21 114.955C353.412 106.783 354.142 98.7946 356.842 90.9476C359.678 82.7737 364.424 75.8204 370.628 69.8555C375.531 65.1451 381.07 61.3566 387.287 58.6399C390.881 57.0532 394.588 55.8864 398.515 55.5292C401.78 55.2229 404.973 55.4833 408.098 56.4384C412.094 57.64 415.344 60.0096 418.073 63.0679C419.137 64.2601 419.609 65.645 419.588 67.2282C419.585 67.4543 419.582 67.6805 419.609 67.8985C419.59 68.0647 419.628 68.0866 419.674 68.1384Z" fill="#6103D0"/>
</mask>
<g mask="url(#mask1_1624_3396)">
<path d="M360.892 78.7264C360.884 79.0506 360.883 79.4049 360.905 79.721C361.104 81.4053 361.715 82.9457 362.296 84.4943C363.768 88.3766 365.755 92.0225 367.661 95.7228C369.071 98.4305 370.482 101.138 371.437 104.066C372.088 106.111 372.688 108.202 373.197 110.317C374.084 113.939 374.692 117.605 375 121.353C375.164 123.497 375.267 125.658 375.054 127.841C374.944 129.094 374.705 130.35 374.186 131.521C373.89 132.213 373.473 132.809 372.875 133.454C372.894 133.288 372.87 133.198 372.922 133.152C374.022 131.63 374.379 129.859 374.463 128.034C374.599 125.807 374.458 123.625 374.18 121.414C373.542 115.857 372.393 110.438 370.689 105.106C369.902 102.68 368.802 100.403 367.641 98.1425C365.978 94.8594 364.292 91.6145 362.681 88.2852C361.651 86.1502 360.771 83.9745 360.183 81.6875C360.02 81.0878 359.917 80.4718 359.845 79.8477C359.807 79.4716 359.821 79.0492 359.912 78.6706C360.084 77.8833 360.763 77.5381 361.449 77.9314C361.975 78.2073 362.465 78.5895 362.843 79.0341C363.738 80.079 364.612 81.162 365.463 82.283C367.857 85.5289 369.945 88.9543 372.041 92.4096C375.157 97.4876 378.467 102.449 381.962 107.263C382.629 108.177 383.339 109.014 384.087 109.873C384.364 110.184 384.702 110.479 385.023 110.714C385.573 111.08 385.933 110.982 386.223 110.389C386.403 109.986 386.537 109.531 386.581 109.1C386.79 107.852 386.696 106.558 386.491 105.326C386.007 102.238 385.104 99.2638 384.14 96.3059C382.455 91.1617 380.328 86.1695 378.291 81.1528C377.039 78.0801 375.825 75.0293 374.894 71.8371C374.246 69.5664 373.658 67.2794 373.527 64.9003C373.501 64.328 373.504 63.7476 373.576 63.1809C373.807 61.5408 374.95 61.0055 376.363 61.942C376.989 62.3516 377.519 62.8837 378.05 63.4157C379.174 64.5917 380.12 65.9445 380.985 67.3517C383.041 70.6571 384.835 74.0657 386.525 77.5668C389.183 83.0911 391.81 88.6235 394.416 94.1941C395.408 96.3073 396.31 98.4448 397.28 100.596C397.5 101.051 397.758 101.529 398.068 101.96C398.231 102.205 398.515 102.418 398.7 102.625C399.163 102.435 399.352 102.062 399.45 101.713C399.661 100.948 399.91 100.204 400.053 99.4253C400.492 96.8917 400.291 94.3708 399.872 91.8769C399.104 87.3852 397.685 83.1024 396.055 78.8765C394.784 75.6158 393.483 72.3632 392.354 69.0318C391.306 66.0002 390.468 62.9117 390.328 59.6661C390.315 59.0257 390.363 58.3691 390.448 57.7343C390.514 57.2657 390.686 56.8326 390.927 56.4133C391.407 55.5746 392.231 55.2869 393.099 55.7594C393.671 56.0872 394.259 56.4749 394.684 56.9714C395.625 58.0681 396.553 59.2329 397.39 60.4221C399.572 63.5969 401.344 67.0436 403.048 70.4765C404.917 74.2831 406.577 78.1466 407.894 82.1676C408.944 85.3272 409.784 88.5438 410.745 91.7278C410.875 92.2076 411.073 92.7011 411.304 93.3145C411.656 92.8327 411.76 92.3859 411.873 91.9691C412.338 90.0078 412.6 88.0053 412.733 86.0053C413.09 80.436 412.664 74.9501 411.229 69.5446C410.519 66.8077 409.809 64.0709 409.15 61.2879C408.633 59.1426 408.265 56.9567 408.431 54.7225C408.465 54.1339 408.596 53.551 408.728 52.968C408.791 52.7256 408.944 52.4587 409.113 52.2518C409.408 51.9143 409.658 52.0073 409.925 52.5145C409.857 52.5008 409.767 52.5252 409.729 52.5034C409.66 52.4896 409.614 52.4378 409.508 52.4022C409.191 52.7779 409.147 53.2084 409.073 53.647C408.894 54.8866 408.942 56.1292 409.147 57.3612C409.42 58.9611 409.732 60.5829 410.133 62.1802C410.886 65.1951 411.73 68.1855 412.453 71.2084C413.489 75.4989 413.78 79.8946 413.597 84.3224C413.495 86.7966 413.22 89.2214 412.68 91.6214C412.526 92.2425 412.343 92.8717 412.083 93.4573C411.947 93.7841 411.734 94.0672 411.311 94.053C410.919 94.0307 410.718 93.7634 410.598 93.4417C410.248 92.5065 409.928 91.5633 409.637 90.6119C408.888 88.2075 408.259 85.7705 407.459 83.4123C404.831 75.6264 401.397 68.1881 397 61.2363C396.206 59.9709 395.278 58.8061 394.32 57.6495C393.934 57.1748 393.444 56.7927 392.902 56.4568C392.314 56.0691 391.842 56.2292 391.561 56.8528C391.367 57.324 391.159 57.8633 391.161 58.3456C391.162 59.5364 391.193 60.7191 391.353 61.8992C391.693 64.2213 392.273 66.4784 393.093 68.6703C394.494 72.4108 395.955 76.1351 397.356 79.8756C398.869 83.9078 400.111 88.0133 400.754 92.2814C401.127 94.7235 401.214 97.1788 400.78 99.6143C400.665 100.257 400.511 100.878 400.32 101.478C400.221 101.826 400.063 102.191 399.858 102.504C399.295 103.397 398.491 103.519 397.789 102.711C397.365 102.215 396.984 101.642 396.693 101.045C395.623 98.76 394.62 96.4888 393.58 94.1957C389.914 86.144 386.309 78.0761 381.987 70.3315C380.994 68.5725 379.882 66.8462 378.718 65.166C378.136 64.326 377.36 63.6028 376.615 62.8716C376.315 62.5987 375.934 62.3802 375.539 62.2298C374.992 61.992 374.686 62.1714 374.517 62.7325C374.426 63.1112 374.344 63.5198 374.382 63.8959C374.554 65.3622 374.688 66.8066 374.981 68.2403C375.671 71.4975 376.834 74.5946 378.048 77.6455C380.008 82.6184 382.051 87.537 383.952 92.5262C385.375 96.2286 386.528 100.004 387.261 103.894C387.581 105.545 387.772 107.2 387.511 108.848C387.417 109.453 387.264 110.074 386.996 110.629C386.491 111.732 385.523 111.963 384.537 111.297C384.026 110.952 383.557 110.532 383.163 110.028C381.786 108.276 380.402 106.495 379.107 104.689C376.061 100.462 373.445 95.9239 370.726 91.4786C368.546 87.9496 366.313 84.4669 363.745 81.1717C363.204 80.4816 362.64 79.8296 362.025 79.2238C361.756 78.9428 361.375 78.7243 361.054 78.4895C361.034 78.6557 360.952 78.7101 360.892 78.7264Z" fill="white"/>
</g>
</g>
<rect x="508" y="91.2454" width="86.4909" height="205.127" rx="43.2455" transform="rotate(-30 508 91.2454)" fill="#F74D5A"/>
</g>
<defs>
<clipPath id="clip0_1624_3396">
<rect width="655" height="140" fill="white"/>
</clipPath>
</defs>
</svg>
