<svg width="27" height="28" viewBox="0 0 27 28" fill="none" xmlns="http://www.w3.org/2000/svg">
<path d="M14.0531 16.6425V12.817H26.8106C26.9353 13.4832 27 14.2718 27 15.1258C27 17.9958 26.2241 21.5448 23.7208 24.073C21.2869 26.6338 18.1774 28 14.0577 28C6.42093 28 0 21.7152 0 14C0 6.28483 6.42093 0 14.0577 0C18.2825 0 21.2915 1.67533 23.5523 3.85817L20.8804 6.55667C19.2593 5.02017 17.0621 3.8255 14.0531 3.8255C8.47734 3.8255 4.11628 8.36617 4.11628 14C4.11628 19.6338 8.47734 24.1745 14.0531 24.1745C17.6694 24.1745 19.7293 22.7068 21.049 21.3733C22.1194 20.2918 22.8237 18.7472 23.1008 16.6378L14.0531 16.6425Z" fill="black"/>
</svg>
