<svg width="271" height="143" viewBox="0 0 271 143" fill="none" xmlns="http://www.w3.org/2000/svg">
<path d="M0.443944 138.799C0.0253659 120.632 3.2712 102.567 9.98772 85.6828C16.7042 68.7982 26.7537 53.4398 39.5364 40.5244C52.319 27.609 67.5728 17.4014 84.3871 10.5108C101.202 3.62022 119.232 0.187946 137.402 0.418835C155.572 0.649724 173.509 4.53905 190.143 11.8547C206.777 19.1703 221.766 29.7622 234.217 42.9982C246.667 56.2342 256.323 71.843 262.608 88.8929C268.894 105.943 271.679 124.084 270.799 142.234L225.79 140.052C226.377 127.948 224.519 115.85 220.328 104.479C216.136 93.1089 209.697 82.6997 201.394 73.8727C193.091 65.0458 183.095 57.9822 172.002 53.1035C160.909 48.2248 148.947 45.6311 136.829 45.4771C124.712 45.3231 112.688 47.6121 101.474 52.2073C90.2612 56.8025 80.0887 63.6099 71.5641 72.223C63.0395 80.8361 56.3377 91.0784 51.8585 102.339C47.3794 113.599 45.2148 125.646 45.4939 137.761L0.443944 138.799Z" fill="#F74D5A"/>
</svg>
