<svg width="39" height="39" viewBox="0 0 39 39" fill="none" xmlns="http://www.w3.org/2000/svg">
<path d="M28.9911 10.6182C28.5045 9.77764 27.7048 9.16412 26.7668 8.91194C26.3037 8.78458 25.8197 8.75132 25.3435 8.81411C24.8673 8.87691 24.4085 9.0345 23.9942 9.27757C23.4372 9.59879 22.9748 10.0612 22.6536 10.6182L20.277 6.50491C20.0371 6.08859 19.7175 5.72363 19.3365 5.4309C18.9555 5.13817 18.5205 4.92341 18.0564 4.7989C17.5923 4.67439 17.1083 4.64258 16.6319 4.70527C16.1555 4.76797 15.6962 4.92394 15.2801 5.16429C14.701 5.49413 14.226 5.97969 13.909 6.56585C13.4748 6.06074 12.9109 5.68384 12.2781 5.47584C11.6454 5.26784 10.9678 5.23664 10.3186 5.38561C9.66939 5.53458 9.07322 5.85806 8.59444 6.32113C8.11567 6.78419 7.77248 7.36924 7.60195 8.01311C7.4341 8.62645 7.4341 9.27361 7.60195 9.88694C7.14419 9.95159 6.70395 10.107 6.30702 10.344C5.89069 10.5839 5.52573 10.9034 5.233 11.2845C4.94027 11.6655 4.72551 12.1005 4.601 12.5645C4.47649 13.0286 4.44468 13.5127 4.50737 13.9891C4.57007 14.4654 4.72605 14.9248 4.96639 15.3408L5.51483 16.2854C4.87295 16.2825 4.24191 16.4508 3.6867 16.7729C2.84896 17.2602 2.23789 18.059 1.98674 18.9951C1.7356 19.9311 1.86477 20.9285 2.34607 21.7698L7.98281 31.535C9.11573 33.4874 10.7807 35.0773 12.7833 36.119C14.7859 37.1607 17.0436 37.6112 19.2926 37.4179C21.5417 37.2246 23.6893 36.3955 25.4849 35.0275C27.2804 33.6594 28.6497 31.8087 29.4329 29.6916C31.3711 27.8493 32.6359 25.4106 33.0253 22.765C33.4147 20.1194 32.9061 17.4197 31.5809 15.0971L28.9911 10.6182ZM15.341 7.84554C15.4033 7.61524 15.5109 7.39965 15.6573 7.21133C15.8038 7.02301 15.9863 6.86573 16.1942 6.74866C16.4022 6.62849 16.6319 6.5505 16.8701 6.51915C17.1082 6.48781 17.3503 6.50371 17.5823 6.56597C17.8144 6.62822 18.0319 6.7356 18.2224 6.88197C18.4129 7.02833 18.5727 7.21081 18.6926 7.41897L22.1508 13.3908C21.7428 13.472 21.3514 13.6214 20.993 13.8326C20.4295 14.1452 19.965 14.6097 19.6524 15.1733L17.2758 11.0448C16.9103 10.4264 16.3767 9.9245 15.7371 9.59749L15.5238 9.2471C15.2823 8.82169 15.2167 8.31868 15.341 7.84554ZM9.36914 8.48538C9.46216 8.13538 9.65704 7.82089 9.92906 7.5818C10.2011 7.34272 10.538 7.18981 10.897 7.14248C11.2561 7.09515 11.6211 7.15553 11.9458 7.31596C12.2705 7.47639 12.5402 7.72964 12.7207 8.04358L13.4367 9.27757C12.9023 9.37642 12.3967 9.59318 11.9566 9.91205C11.5165 10.2309 11.153 10.6439 10.8926 11.1209C10.582 10.7516 10.1981 10.4507 9.76523 10.2373L9.55195 9.87171C9.3113 9.45154 9.24564 8.95356 9.36914 8.48538ZM23.3086 34.2924C20.9988 35.6244 18.2549 35.9859 15.6788 35.2976C13.1028 34.6094 10.9049 32.9275 9.56719 30.6209L3.93045 20.8557C3.81041 20.6476 3.73253 20.418 3.70126 20.1798C3.66998 19.9416 3.68592 19.6996 3.74816 19.4676C3.81041 19.2356 3.91774 19.0182 4.06403 18.8277C4.21032 18.6371 4.3927 18.4773 4.60076 18.3573C4.80883 18.2372 5.0385 18.1593 5.27666 18.1281C5.51482 18.0968 5.75681 18.1127 5.98881 18.175C6.22082 18.2372 6.43829 18.3445 6.62881 18.4908C6.81933 18.6371 6.97917 18.8195 7.09921 19.0276L10.7555 25.3651C10.8357 25.5041 10.9512 25.6196 11.0903 25.6998C11.2294 25.78 11.3871 25.8222 11.5477 25.8221C11.7077 25.8196 11.8647 25.7777 12.0047 25.7002C12.1088 25.6403 12.2 25.5604 12.2732 25.4651C12.3464 25.3698 12.4001 25.2611 12.4312 25.1451C12.4623 25.0291 12.4703 24.908 12.4546 24.7889C12.4389 24.6699 12.3999 24.555 12.3399 24.451L6.55077 14.4268C6.30835 14.0066 6.24277 13.5073 6.36848 13.0387C6.49419 12.5702 6.80088 12.1708 7.22109 11.9283C7.64129 11.6859 8.14059 11.6204 8.60913 11.7461C9.07768 11.8718 9.47711 12.1785 9.71953 12.5987L15.5086 22.6229C15.5686 22.7269 15.6486 22.8181 15.7438 22.8912C15.8391 22.9644 15.9478 23.0181 16.0638 23.0492C16.1798 23.0803 16.3008 23.0883 16.4199 23.0726C16.539 23.057 16.6538 23.0181 16.7578 22.958C16.8619 22.898 16.9531 22.8181 17.0262 22.7228C17.0993 22.6276 17.153 22.5188 17.1841 22.4028C17.2153 22.2868 17.2232 22.1658 17.2076 22.0468C17.192 21.9277 17.153 21.8128 17.093 21.7088L12.5227 13.7869C12.282 13.3668 12.2163 12.8688 12.3399 12.4006C12.4003 12.1676 12.507 11.949 12.6536 11.758C12.8001 11.5669 12.9835 11.4073 13.193 11.2885C13.614 11.0499 14.1121 10.9864 14.5795 11.1118C15.047 11.2372 15.4464 11.5415 15.6914 11.9588L22.0899 23.0494C22.1702 23.1885 22.2856 23.3039 22.4247 23.3842C22.5638 23.4644 22.7215 23.5066 22.8821 23.5065C23.0419 23.5022 23.1984 23.4604 23.3391 23.3846C23.5463 23.2607 23.6971 23.061 23.7597 22.8279C23.8222 22.5947 23.7916 22.3464 23.6743 22.1354L21.2368 17.9002C21.1169 17.6934 21.0392 17.4648 21.0081 17.2278C20.9769 16.9908 20.993 16.75 21.0553 16.5192C21.1176 16.2884 21.2249 16.0722 21.3711 15.883C21.5173 15.6939 21.6994 15.5355 21.9071 15.417C22.1125 15.2945 22.3403 15.2143 22.5771 15.1809C22.814 15.1476 23.0551 15.1618 23.2863 15.2228C23.5176 15.2838 23.7343 15.3904 23.9239 15.5362C24.1135 15.682 24.272 15.8642 24.3903 16.0721L26.9801 20.5662C27.6413 21.7083 28.0709 22.9696 28.2442 24.2778C28.4175 25.5861 28.3312 26.9157 27.9902 28.1905C27.6492 29.4654 27.0602 30.6605 26.2569 31.7075C25.4536 32.7546 24.4517 33.6329 23.3086 34.2924ZM30.1641 25.7459C30.1981 23.6066 29.6449 21.499 28.5645 19.6522L25.9747 15.158C25.6185 14.5415 25.0886 14.0434 24.4512 13.726L24.2379 13.3604C24.1148 13.1539 24.035 12.9244 24.0036 12.6861C23.9721 12.4477 23.9897 12.2054 24.0551 11.9741C24.1156 11.741 24.2223 11.5225 24.3688 11.3314C24.5154 11.1404 24.6988 10.9807 24.9083 10.8619C25.3293 10.6233 25.8273 10.5599 26.2948 10.6853C26.7622 10.8107 27.1616 11.1149 27.4067 11.5323L29.9965 16.0112C30.8384 17.4896 31.295 19.156 31.3243 20.8571C31.3536 22.5582 30.9546 24.2394 30.1641 25.7459ZM25.4262 3.8389L26.0661 1.47757C26.15 1.27082 26.3066 1.1019 26.5064 1.00264C26.7063 0.903389 26.9355 0.880657 27.151 0.938731C27.3664 0.996805 27.5531 1.13167 27.676 1.31792C27.7989 1.50417 27.8494 1.72892 27.818 1.94983L27.1934 4.31116C27.1423 4.50562 27.0275 4.67733 26.8673 4.79885C26.7071 4.92036 26.5108 4.98467 26.3098 4.98147C26.2324 4.98633 26.1548 4.97598 26.0813 4.951C25.8472 4.89007 25.6467 4.73879 25.5239 4.53033C25.4011 4.32187 25.366 4.07322 25.4262 3.8389ZM29.4024 5.33186L30.7887 3.33616C30.9281 3.13616 31.1413 2.99973 31.3813 2.95687C31.6212 2.91402 31.8684 2.96825 32.0684 3.10765C32.2684 3.24704 32.4049 3.46017 32.4477 3.70016C32.4906 3.94015 32.4363 4.18733 32.2969 4.38733L30.8954 6.38304C30.813 6.50519 30.7018 6.60521 30.5716 6.67428C30.4414 6.74335 30.2963 6.77936 30.1489 6.77913C29.9589 6.77478 29.774 6.71668 29.6157 6.61155C29.4203 6.46818 29.2886 6.25414 29.2488 6.01508C29.2089 5.77603 29.2641 5.53086 29.4024 5.33186ZM35.6638 8.21116L33.668 9.59749C33.5131 9.70957 33.326 9.76837 33.1348 9.76507C32.9416 9.76306 32.754 9.69986 32.5989 9.58455C32.4438 9.46923 32.3293 9.30773 32.2717 9.12324C32.2142 8.93875 32.2166 8.74077 32.2786 8.55774C32.3406 8.3747 32.459 8.21603 32.6169 8.10452L34.6126 6.70296C34.8126 6.56356 35.0598 6.50933 35.2998 6.55218C35.5397 6.59504 35.7529 6.73147 35.8923 6.93147C36.0317 7.13147 36.0859 7.37866 36.043 7.61864C36.0002 7.85863 35.8638 8.07177 35.6638 8.21116Z" fill="#6103D0"/>
</svg>
