<svg width="53" height="53" viewBox="0 0 53 53" fill="none" xmlns="http://www.w3.org/2000/svg">
<g clip-path="url(#clip0_1876_4463)">
<path d="M25.0718 0V8.41035H27.9284V0H25.0715H25.0718V0ZM13.4069 2.52744L11.0664 4.16615L15.8896 11.0538L18.2288 9.41501L13.4069 2.52744ZM39.5927 2.52744L34.771 9.41505L37.1105 11.0538L41.9336 4.16615L39.5931 2.52744H39.5927V2.52744ZM26.4995 10.7115C19.5111 10.7115 13.8461 14.9551 13.8461 20.1907L21.0352 41.9626H31.9651L39.1536 20.1907C39.1536 14.9552 33.4888 10.7115 26.5002 10.7115H26.4995V10.7115ZM3.77468 13.2356L2.79865 15.9215L10.6978 18.7974L11.6775 16.1127L3.77451 13.2356H3.77468V13.2356ZM49.2249 13.2356L41.3219 16.1129L42.2983 18.7979L50.2013 15.9216L49.2249 13.2356V13.2356ZM11.2959 25.5142L3.17362 27.6928L3.91059 30.4502L12.0328 28.2747L11.296 25.5142H11.2959V25.5142ZM41.7037 25.5142L40.9673 28.2747L49.0896 30.4498L49.826 27.6924L41.7037 25.5142V25.5142V25.5142ZM20.8758 43.5497V47.3342H32.1245V43.5503H20.8758L20.8758 43.5497ZM20.8758 49.2155V53H32.1245V49.2162H20.8758L20.8758 49.2155Z" fill="#6103D0"/>
</g>
<defs>
<clipPath id="clip0_1876_4463">
<rect width="53" height="53" fill="white"/>
</clipPath>
</defs>
</svg>
