<svg width="186" height="146" viewBox="0 0 186 146" fill="none" xmlns="http://www.w3.org/2000/svg">
<mask id="path-1-inside-1_1066_4007" fill="white">
<path d="M173.611 0.788702C179.665 12.1775 183.416 24.6471 184.651 37.4857C185.886 50.3242 184.579 63.2802 180.807 75.6139C177.035 87.9477 170.87 99.4176 162.665 109.369C154.46 119.32 144.375 127.558 132.986 133.612C121.597 139.665 109.127 143.417 96.2889 144.651C83.4504 145.886 70.4944 144.58 58.1606 140.807C45.8269 137.035 34.3569 130.87 24.4057 122.665C14.4544 114.46 6.21675 104.375 0.16298 92.9862L42.5376 70.4617C45.6334 76.2858 49.846 81.4431 54.9349 85.6391C60.0239 89.8351 65.8895 92.9877 72.1968 94.9169C78.5041 96.846 85.1296 97.514 91.6951 96.8826C98.2605 96.2512 104.637 94.3328 110.461 91.237C116.285 88.1412 121.443 83.9286 125.639 78.8396C129.835 73.7507 132.987 67.8851 134.917 61.5778C136.846 55.2705 137.514 48.645 136.882 42.0795C136.251 35.514 134.332 29.1372 131.237 23.3132L173.611 0.788702Z"/>
</mask>
<path d="M173.611 0.788702C179.665 12.1775 183.416 24.6471 184.651 37.4857C185.886 50.3242 184.579 63.2802 180.807 75.6139C177.035 87.9477 170.87 99.4176 162.665 109.369C154.46 119.32 144.375 127.558 132.986 133.612C121.597 139.665 109.127 143.417 96.2889 144.651C83.4504 145.886 70.4944 144.58 58.1606 140.807C45.8269 137.035 34.3569 130.87 24.4057 122.665C14.4544 114.46 6.21675 104.375 0.16298 92.9862L42.5376 70.4617C45.6334 76.2858 49.846 81.4431 54.9349 85.6391C60.0239 89.8351 65.8895 92.9877 72.1968 94.9169C78.5041 96.846 85.1296 97.514 91.6951 96.8826C98.2605 96.2512 104.637 94.3328 110.461 91.237C116.285 88.1412 121.443 83.9286 125.639 78.8396C129.835 73.7507 132.987 67.8851 134.917 61.5778C136.846 55.2705 137.514 48.645 136.882 42.0795C136.251 35.514 134.332 29.1372 131.237 23.3132L173.611 0.788702Z" stroke="#6103D0" stroke-width="14" mask="url(#path-1-inside-1_1066_4007)"/>
</svg>
