<svg width="251" height="128" viewBox="0 0 251 128" fill="none" xmlns="http://www.w3.org/2000/svg">
<path d="M0.762793 127.209C0.568566 110.798 3.60859 94.5094 9.70931 79.2735C15.81 64.0375 24.8519 50.1524 36.3188 38.4108C47.7857 26.6693 61.4529 17.3013 76.5402 10.8417C91.6276 4.38209 107.839 0.957419 124.25 0.763192C140.661 0.568974 156.949 3.60901 172.185 9.70973C187.421 15.8104 201.307 24.8524 213.048 36.3192C224.79 47.7861 234.158 61.4534 240.617 76.5407C247.077 91.628 250.501 107.84 250.696 124.251L189.635 124.973C189.536 116.581 187.785 108.291 184.481 100.575C181.178 92.8596 176.387 85.8704 170.383 80.0064C164.378 74.1424 157.278 69.5184 149.486 66.3986C141.695 63.2788 133.365 61.7241 124.973 61.8235C116.581 61.9228 108.29 63.6741 100.575 66.9775C92.8592 70.2808 85.8699 75.0715 80.0059 81.076C74.1419 87.0804 69.518 94.1811 66.3982 101.973C63.2784 109.764 61.7237 118.094 61.8231 126.486L0.762793 127.209Z" fill="#F74D5A"/>
</svg>
