<svg width="236" height="184" viewBox="0 0 236 184" fill="none" xmlns="http://www.w3.org/2000/svg">
<path d="M221.083 0.0704891C228.786 14.5623 233.559 30.4295 235.13 46.7661C236.702 63.1027 235.04 79.5888 230.239 95.2831C225.439 110.977 217.594 125.573 207.154 138.235C196.713 150.898 183.88 161.38 169.388 169.083C154.896 176.786 139.029 181.56 122.693 183.131C106.356 184.702 89.87 183.04 74.1757 178.24C58.4814 173.439 43.8863 165.595 31.2237 155.154C18.561 144.713 8.07887 131.881 0.375648 117.389L54.2959 88.7271C58.2352 96.138 63.5956 102.7 70.0712 108.04C76.5467 113.379 84.0104 117.391 92.0362 119.845C100.062 122.3 108.493 123.15 116.847 122.347C125.202 121.543 133.316 119.102 140.727 115.163C148.138 111.224 154.7 105.863 160.039 99.3877C165.379 92.9122 169.39 85.4484 171.845 77.4226C174.3 69.3967 175.15 60.966 174.346 52.6117C173.543 44.2573 171.102 36.1431 167.163 28.7321L221.083 0.0704891Z" fill="#6103D0"/>
</svg>
