<svg width="180" height="88" viewBox="0 0 180 88" fill="none" xmlns="http://www.w3.org/2000/svg">
<path d="M34.3901 83.5658C34.5329 83.5673 34.7307 83.5441 34.8621 83.5835C41.4452 85.3474 48.1389 85.7845 54.8454 86.0195C57.9626 86.1282 61.0587 86.1481 64.1548 86.1681C64.3965 86.158 64.6381 86.1479 64.925 85.9865C64.3881 85.867 63.8625 85.7097 63.3256 85.5902C51.9863 82.8152 41.1958 78.8445 31.2581 72.8213C30.7777 72.5128 30.2196 72.3045 29.6502 72.1342C23.258 69.8917 17.1006 67.1838 11.5682 63.3443C8.6113 61.2645 5.97523 58.9098 3.90315 56.1057C0.0429566 50.6651 -0.742302 45.1556 1.51489 39.5264C2.88534 36.0631 5.15153 33.115 7.81046 30.4493C9.64953 28.6096 11.7174 26.962 13.8941 25.4294C14.2588 25.1677 14.6786 24.8812 14.9232 24.5423C18.7715 19.0184 24.0466 14.7868 30.2258 11.3614C37.4311 7.37767 45.3821 4.7297 53.7426 2.946C66.6791 0.22403 79.937 -0.382599 93.477 0.619839C101.41 1.22182 109.316 2.39261 117.085 4.18163C127.801 6.64664 138.124 10.1066 147.895 15.0909C155.262 18.8612 162.04 23.3209 167.798 28.9585C171.423 32.4745 174.419 36.3379 176.554 40.6854C178.829 45.3632 179.829 50.1541 179.127 55.0536C178.753 57.5789 177.941 59.9732 176.615 62.1724C174.921 64.9621 173.008 67.6862 170.594 70.013C167.05 73.4029 162.767 75.9125 158.072 77.8865C151.956 80.4652 145.452 82.1041 138.701 83.1333C129.048 84.6125 119.191 85.4952 109.336 86.2135C98.5466 87.0232 87.7165 87.4909 76.8568 87.579C67.9075 87.6619 58.9711 87.5426 50.0081 86.7147C45.126 86.284 40.2468 85.5244 35.5275 84.071C35.1333 83.9531 34.7829 83.8482 34.3887 83.7302C34.3562 83.6793 34.3788 83.6037 34.3901 83.5658ZM55.6785 75.1017C58.4833 75.7762 63.2493 76.914 68.0818 77.9892C69.7364 78.3607 71.4687 78.6319 73.1475 78.7633C78.3377 79.1215 83.4757 79.1755 88.6152 79.0652C99.5753 78.8012 110.356 77.7005 120.787 75.2178C128.192 73.4367 135.252 71.0576 141.706 67.5086C145.822 65.2376 149.59 62.533 152.487 59.073C154.94 56.1396 156.594 52.8436 156.925 49.0279C157.257 45.0477 156.105 41.2417 153.842 37.6389C151.591 33.9983 148.555 30.9059 145.033 28.1625C139.08 23.4966 132.303 20.1498 125.091 17.4561C117.748 14.7231 110.221 12.924 102.524 11.6922C92.3603 10.0929 82.2413 9.6197 72.167 10.2725C60.9284 10.9889 50.0624 13.0118 39.8614 16.7996C34.0669 18.9391 28.6849 21.6141 23.9753 25.232C19.6869 28.399 16.3154 32.1702 14.5813 37.0081C13.0494 41.3298 13.1638 45.7319 15.1774 50.1667C16.6742 53.4579 19.0318 56.2649 21.7978 58.8233C25.6967 62.3801 30.2502 65.1849 35.1261 67.5505C41.0841 70.446 47.3011 72.6361 55.6785 75.1017ZM114.484 12.5515C114.462 12.6272 114.494 12.6781 114.472 12.7537C115.304 13.0028 116.136 13.2518 116.968 13.5008C122.16 14.9719 127.205 16.7702 132.06 19.047C137.637 21.6224 142.857 24.7504 147.478 28.6056C151.063 31.6152 154.119 34.9608 156.181 38.9155C159.214 44.7269 159.339 50.3685 156.545 55.8782C154.735 59.3749 152.063 62.2428 148.879 64.7513C144.766 67.9708 140.066 70.438 135.063 72.4846C128.385 75.1839 121.353 76.9942 114.095 78.2837C105.331 79.8228 96.3868 80.5255 87.3386 80.6199C86.9105 80.6154 86.471 80.6488 86.0428 80.6442C86.3155 80.8495 86.5345 80.915 86.8199 80.918C91.3728 81.3327 95.9469 81.8361 100.49 82.1242C111.551 82.797 122.51 82.6973 133.326 81.3189C141.263 80.3148 148.931 78.6123 156.105 75.6906C160.612 73.8663 164.782 71.5706 168.421 68.6623C171.374 66.2906 173.354 63.3395 174.428 59.9109C175.885 55.3609 175.344 50.7898 173.265 46.2532C171.317 41.9202 168.243 38.1572 164.584 34.7547C158.53 29.1519 151.386 24.954 143.621 21.5589C137.376 18.8248 130.984 16.5823 124.367 14.9319C121.092 14.0754 117.782 13.3324 114.484 12.5515ZM177.435 52.7341C177.478 52.7472 177.534 52.7225 177.534 52.7225C177.535 52.5581 177.58 52.4068 177.57 52.2803C177.709 49.1074 177.078 45.9518 175.854 42.8659C173.877 37.9888 170.764 33.7195 166.824 29.8209C162.406 25.4493 157.344 21.7918 151.805 18.6098C140.521 12.1426 128.371 7.92993 115.671 5.0773C109.053 3.59125 102.43 2.59837 95.6937 1.98369C82.2541 0.805258 69.0528 1.22279 56.1729 3.75565C47.5058 5.4476 39.3131 8.10567 31.8111 12.1242C27.1555 14.6045 22.9788 17.5577 19.4872 21.2517C19.2879 21.4393 19.121 21.6778 18.9104 21.9032C19.1845 21.9441 19.3499 21.8699 19.5153 21.7958C26.4888 17.9488 34.0357 15.0563 42.0473 13.0033C65.675 6.92873 90.0313 6.55271 114.947 11.1653C124.034 12.8543 132.872 15.3755 141.427 18.8421C148.024 21.5167 154.265 24.744 159.982 28.7625C164.401 31.8568 168.323 35.3379 171.514 39.5068C174.498 43.4081 176.591 47.5781 177.22 52.1754C177.339 52.4169 177.392 52.5566 177.435 52.7341ZM12.2058 28.8388C11.6969 29.2635 11.3322 29.5252 11 29.8379C7.503 32.9121 4.53011 36.308 2.92199 40.5656C1.31387 44.8232 1.59364 49.1512 4.02556 53.4639C5.71181 56.4409 8.12739 58.8945 10.9514 61.0994C14.6585 64.0218 18.8546 66.2664 23.2516 68.1591C23.9736 68.4575 24.6517 68.7429 25.3737 69.0414C11.3017 57.5368 6.07193 44.3927 12.2058 28.8388ZM38.3554 74.7803C38.3441 74.8182 38.2777 74.8807 38.2663 74.9185C38.4302 75.0088 38.6266 75.1499 38.7905 75.2402C42.3212 76.9973 45.9199 78.5274 49.6076 79.9194C56.1735 82.3787 62.919 84.3972 69.7791 85.8731C70.4912 86.045 71.226 86.1413 71.951 86.111C83.2403 85.863 94.4888 85.2732 105.662 84.4549C105.904 84.4448 106.168 84.3591 106.41 84.349C105.94 84.167 105.479 84.1116 105.007 84.0939C96.4903 83.6882 88.043 82.8911 79.5564 81.5877C74.9951 80.8821 70.4452 80.1387 65.8485 79.7109C58.1247 79.0479 50.4831 77.7914 42.9236 75.9413C41.4343 75.4957 39.8786 75.1125 38.3554 74.7803ZM35.2263 16.9784C35.2376 16.9406 35.2052 16.8897 35.2165 16.8518C34.2032 17.2079 33.1898 17.564 32.2203 17.9332C26.6789 20.0248 21.3859 22.5616 16.538 25.6849C16.0631 25.996 15.5542 26.4206 15.2757 26.873C13.3259 30.0394 11.9781 33.4271 11.495 37.1148C10.427 44.8305 12.4594 52.073 17.5373 58.867C20.8354 63.3153 25.1074 66.9013 29.8769 70.1005C31.2629 71.0509 32.7832 71.7118 34.4038 72.1968C41.2044 74.1906 48.1521 75.6928 55.1254 76.7905C56.1781 76.9407 57.2309 77.0909 58.2949 77.2033C47.6397 74.056 46.0304 73.5332 38.8867 70.6126C34.2156 68.6791 29.8005 66.369 25.6978 63.493C21.5188 60.553 17.8487 57.1883 15.2839 53.0007C12.6541 48.7111 11.6509 44.249 12.4169 39.6158C13.0329 35.8031 14.7538 32.4446 17.2404 29.3977C20.482 25.4229 24.6814 22.394 29.3596 19.838C31.3227 18.8596 33.2632 17.9568 35.2263 16.9784Z" fill="#D0EE26"/>
</svg>
