<svg width="232" height="232" viewBox="0 0 232 232" fill="none" xmlns="http://www.w3.org/2000/svg">
<path d="M230.73 115.115C230.795 130.232 227.883 145.214 222.158 159.206C216.434 173.197 208.01 185.924 197.367 196.66C186.724 207.396 174.071 215.93 160.13 221.776C146.188 227.622 131.232 230.664 116.115 230.73C100.998 230.796 86.0161 227.883 72.0246 222.159C58.0331 216.435 45.3061 208.011 34.5702 197.368C23.8344 186.725 15.3 174.071 9.45421 160.13C3.60846 146.189 0.565878 131.233 0.500186 116.116L38.8464 115.949C38.8902 126.03 40.9193 136.004 44.8178 145.302C48.7162 154.599 54.4077 163.037 61.5673 170.135C68.7269 177.232 77.2143 182.85 86.5451 186.668C95.8758 190.485 105.867 192.428 115.949 192.384C126.03 192.34 136.004 190.311 145.301 186.413C154.598 182.514 163.037 176.823 170.134 169.663C177.232 162.503 182.85 154.016 186.667 144.685C190.485 135.354 192.427 125.363 192.383 115.282L230.73 115.115Z" fill="#D0EE26"/>
<path d="M153.955 133.717C156.858 126.414 157.529 118.414 155.884 110.73C154.239 103.045 150.351 96.0213 144.713 90.5471C139.074 85.0729 131.938 81.3943 124.209 79.9769C116.479 78.5595 108.502 79.4669 101.288 82.5844C94.0746 85.7019 87.9476 90.8893 83.6829 97.4902C79.4182 104.091 77.2075 111.809 77.3304 119.666C77.4534 127.524 79.9046 135.169 84.3738 141.633C88.843 148.097 95.1293 153.09 102.437 155.98C112.223 159.833 123.137 159.653 132.791 155.481C142.445 151.309 150.054 143.484 153.955 133.717Z" fill="#F74D5A"/>
</svg>
