<svg width="140" height="130" viewBox="0 0 206 212" fill="none" xmlns="http://www.w3.org/2000/svg">
<path d="M87.9966 103.046C88.4003 101.669 88.8041 100.407 89.1502 99.1453C90.8231 92.6632 92.4382 86.1811 94.6302 79.8138C98.6104 68.2837 103.225 56.9831 107.955 45.7399C113.204 33.292 118.338 20.8441 123.53 8.39624C124.337 6.38852 125.318 4.49553 126.299 2.54517C126.645 1.79944 127.164 1.11108 127.741 0.537447C128.721 -0.437732 129.99 -0.0361878 130.106 1.34054C130.221 2.48781 130.221 3.63507 129.99 4.78234C129.125 9.65824 128.26 14.5341 127.222 19.3527C124.453 32.4889 121.626 45.6251 119.434 58.8761C118.165 66.6775 117.069 74.479 115.973 82.2804C114.993 89.164 114.185 95.9903 113.32 102.874C113.204 103.906 113.147 104.939 113.031 106.258C113.608 105.914 113.897 105.742 114.185 105.513C115.339 104.48 116.55 103.448 117.588 102.3C128.779 90.7128 141.412 80.7889 154.737 71.7255C155.544 71.2093 156.352 70.693 157.217 70.2341C157.679 70.0046 158.198 69.8899 158.659 69.8325C159.582 69.7752 160.274 70.4062 160.274 71.324C160.274 72.0123 160.159 72.8154 159.813 73.4464C159.005 75.11 158.198 76.7735 157.159 78.2649C153.698 83.0835 150.237 87.902 146.661 92.6058C141.296 99.6615 135.816 106.66 130.394 113.716C129.356 115.035 128.433 116.469 127.568 117.96C126.299 120.083 126.529 121.115 128.664 122.435C130.279 123.41 131.952 124.27 133.682 125.016C139.912 127.655 146.373 129.72 152.833 131.67C169.273 136.718 185.54 142.283 201.461 148.765C202.441 149.166 203.479 149.51 204.46 149.912C204.864 150.084 205.21 150.256 205.556 150.543C206.306 151.231 206.075 152.436 205.095 152.78C204.749 152.895 204.345 152.952 203.999 152.952C200.134 153.01 196.269 153.124 192.404 153.01C182.598 152.608 172.792 151.575 163.043 150.371C148.738 148.65 134.547 146.298 120.473 143.372C118.569 142.971 116.665 142.684 114.762 142.34C114.358 142.283 113.954 142.225 113.493 142.283C111.993 142.283 111.358 142.627 110.955 144.118C110.436 146.126 109.974 148.134 109.628 150.141C108.071 158.803 106.801 167.523 105.821 176.299C105.186 181.978 104.725 187.714 104.033 193.393C103.513 197.868 102.764 202.285 102.129 206.759C101.956 207.734 101.61 208.71 101.264 209.627C100.918 210.602 100.283 211.463 99.0718 211.463C97.9759 211.406 97.3413 210.602 97.0529 209.627C96.5338 208.079 96.0146 206.472 95.7839 204.866C95.207 201.023 94.6302 197.122 94.3995 193.279C93.8226 183.871 93.3611 174.521 93.0727 165.113C92.8997 159.434 93.0727 153.755 93.1304 148.076C93.1304 147.56 93.1304 146.986 93.1304 146.241C92.2652 146.355 91.5153 146.355 90.7654 146.47C82.4589 147.847 74.3255 149.74 66.1344 151.69C52.1749 154.903 38.2155 158.402 24.0829 161.213C18.0838 162.417 12.027 163.45 5.97024 164.54C4.93193 164.712 3.83594 164.769 2.79763 164.884C2.50921 164.884 2.22079 164.941 1.99006 164.884C0.7787 164.826 0.144178 164.482 0.0288107 163.737C-0.144241 162.761 0.490281 162.302 1.18249 161.901C2.73995 161.04 4.23973 160.237 5.79719 159.434C20.5065 151.69 35.562 144.634 50.5021 137.407C57.4818 134.022 64.3462 130.294 71.2106 126.68C72.0758 126.221 72.8257 125.705 73.864 125.074C73.3449 124.385 72.9411 123.697 72.4219 123.181C69.5377 120.083 66.7689 116.871 63.654 114.002C57.4242 108.266 51.0789 102.702 44.676 97.1375C36.8887 90.3686 29.2168 83.485 22.1794 75.9704C20.6219 74.3069 19.1221 72.5286 17.68 70.7503C17.2763 70.2914 16.9302 69.7178 16.5841 69.1442C16.1226 68.3411 16.1803 67.5954 16.6994 67.0791C17.1609 66.5628 17.9108 66.5054 18.7184 66.907C19.0068 67.0217 19.2952 67.2512 19.5836 67.3659C23.4484 69.5457 27.1979 71.8402 31.1204 73.9053C42.7725 79.9859 54.4823 86.0664 65.9037 92.6632C71.3836 95.8182 77.0943 98.4569 83.0934 100.579C84.0164 100.924 84.824 101.382 85.6892 101.841C86.4391 102.186 87.1313 102.587 87.9966 103.046Z" fill="#F74D5A"/>
</svg>
