<svg width="375" height="812" viewBox="0 0 375 812" fill="none" xmlns="http://www.w3.org/2000/svg">
<g clip-path="url(#clip0_1394_3201)">
<rect width="375" height="812" fill="#F7F7F8"/>
<path d="M-311.274 154.274L-576.726 419.726C-719.919 562.919 -719.919 795.081 -576.726 938.274L-311.274 1203.73C-168.081 1346.92 64.0809 1346.92 207.274 1203.73L472.726 938.274C615.919 795.081 615.919 562.919 472.726 419.726L207.274 154.274C64.0809 11.081 -168.081 11.0809 -311.274 154.274Z" fill="#6103D0"/>
<path d="M5.89887 683.899C5.95741 672.276 2.57051 660.943 -3.83412 651.332C-10.2388 641.72 -19.3739 634.262 -30.0862 629.897C-40.7985 625.533 -52.6076 624.458 -64.0223 626.809C-75.4371 629.16 -85.9456 634.832 -94.2211 643.107C-102.497 651.383 -108.168 661.891 -110.519 673.306C-112.87 684.721 -111.796 696.53 -107.431 707.242C-103.066 717.954 -95.6077 727.089 -85.9964 733.494C-76.3851 739.899 -65.0523 743.286 -53.429 743.227C-37.8078 743.099 -22.7899 736.781 -11.6683 725.66C-0.54675 714.538 5.77075 699.52 5.89887 683.899Z" fill="#F74D5A"/>
<path d="M327.693 684.984C327.657 669.352 321.431 654.371 310.378 643.318C299.325 632.265 284.345 626.04 268.712 626.003L87.1276 625.954C71.7314 626.334 57.0921 632.715 46.3327 643.737C35.5734 654.758 29.5457 669.546 29.5357 684.947C29.5256 700.348 35.534 715.142 46.279 726.173C57.024 737.204 71.6549 743.599 87.0506 743.994L268.701 743.977C284.334 743.937 299.316 737.709 310.37 726.654C321.425 715.599 327.654 700.617 327.693 684.984V684.984Z" fill="#D0EE26"/>
<path d="M180.136 541.297C180.078 552.921 183.465 564.254 189.869 573.865C196.274 583.476 205.409 590.935 216.122 595.3C226.834 599.664 238.643 600.739 250.058 598.388C261.472 596.036 271.981 590.365 280.256 582.09C288.532 573.814 294.203 563.306 296.554 551.891C298.906 540.476 297.831 528.667 293.466 517.955C289.102 507.242 281.643 498.107 272.032 491.703C262.42 485.298 251.088 481.911 239.464 481.97C223.843 482.098 208.825 488.415 197.704 499.537C186.582 510.658 180.265 525.676 180.136 541.297V541.297Z" fill="#F74D5A"/>
<path d="M96.1057 588.982C80.5692 589.014 65.6908 582.879 54.7365 571.924C43.7821 560.97 37.6471 546.091 37.6783 530.555L38.3043 381.669C38.3265 373.965 39.8659 366.332 42.8344 359.207C45.803 352.081 50.1426 345.602 55.6056 340.139C61.0685 334.676 67.5479 330.336 74.6736 327.368C81.7992 324.399 89.4318 322.86 97.1354 322.838C104.839 322.815 112.463 324.311 119.571 327.238C126.68 330.166 133.134 334.468 138.566 339.9C143.998 345.331 148.3 351.786 151.228 358.894C154.155 366.003 155.65 373.627 155.628 381.33L154.871 530.217C154.788 545.746 148.559 560.646 137.547 571.659C126.535 582.671 111.635 588.9 96.1057 588.982Z" fill="#D0EE26"/>
<path d="M296.753 823.858C296.767 808.325 290.633 793.464 279.691 782.522C268.749 771.58 253.888 765.446 238.355 765.46L89.3101 766.092C81.6205 766.121 74.0004 767.665 66.8849 770.635C59.7694 773.604 53.2979 777.942 47.8398 783.4C42.3818 788.858 38.0441 795.33 35.0744 802.445C32.1046 809.561 30.5611 817.181 30.5319 824.87C30.5026 832.56 31.9882 840.169 34.9039 847.262C37.8196 854.355 42.1082 860.794 47.5249 866.21C52.9417 871.627 59.3804 875.916 66.4735 878.831C73.5666 881.747 81.1752 883.233 88.8648 883.203L237.909 882.702C253.443 882.598 268.351 876.351 279.376 865.325C290.402 854.3 296.649 839.392 296.753 823.858V823.858Z" fill="#D0EE26"/>
<path d="M-53.5518 298.621C-38.1101 298.678 -23.323 304.832 -12.4103 315.745C-1.49757 326.658 4.65702 341.445 4.71336 356.886L5.06459 543.507C5.05566 559.038 -1.12267 573.937 -12.1112 584.926C-23.0998 595.914 -37.9985 602.093 -53.5298 602.102C-69.061 602.111 -83.9526 595.949 -94.9285 584.973C-105.904 573.997 -112.066 559.106 -112.057 543.575L-111.949 357.019C-111.868 341.562 -105.687 326.755 -94.7514 315.819C-83.8154 304.883 -69.0086 298.702 -53.5518 298.621V298.621Z" fill="#D0EE26"/>
<path d="M-52.3384 766.716C-36.7368 766.757 -21.7843 772.973 -10.7508 784.007C0.282691 795.04 6.49927 809.993 6.53953 825.594L6.56382 1013.35C6.54215 1024.98 3.07487 1036.35 -3.40077 1046.02C-9.8764 1055.69 -19.0703 1063.22 -29.8231 1067.67C-40.5758 1072.12 -52.4057 1073.28 -63.8208 1071.01C-75.2359 1068.75 -85.725 1063.15 -93.9652 1054.93C-99.445 1049.48 -103.788 1043 -106.743 1035.86C-109.697 1028.72 -111.205 1021.06 -111.177 1013.33L-111.267 825.645C-111.224 810.028 -105.002 795.065 -93.9602 784.023C-82.9188 772.982 -67.9553 766.76 -52.3384 766.716V766.716Z" fill="#D0EE26"/>
</g>
<defs>
<clipPath id="clip0_1394_3201">
<rect width="375" height="812" fill="white"/>
</clipPath>
</defs>
</svg>
