<svg width="113" height="115" viewBox="0 0 113 115" fill="none" xmlns="http://www.w3.org/2000/svg">
<path d="M51.0871 53.6932C51.4599 53.2244 51.8146 52.7999 52.147 52.3664C53.8139 50.1231 55.4584 47.8708 57.308 45.7535C60.6614 41.9214 64.2241 38.2778 67.8223 34.6745C71.8109 30.6871 75.7549 26.6816 79.7211 22.6851C80.3493 22.0358 81.0264 21.4582 81.7125 20.8583C81.9637 20.6244 82.2727 20.4399 82.5861 20.3089C83.1187 20.0861 83.5462 20.4411 83.3742 20.9916C83.2383 21.4534 83.0578 21.897 82.788 22.3043C81.6862 24.0536 80.5843 25.8029 79.4246 27.5027C76.2868 32.1466 73.1268 36.7814 70.194 41.5604C68.4757 44.3774 66.8243 47.2216 65.1728 50.0658C63.7105 52.5733 62.324 55.0858 60.9062 57.6115C60.6991 57.9926 60.5144 58.3828 60.2621 58.8748C60.5394 58.8325 60.678 58.8113 60.8256 58.768C61.4342 58.5502 62.0651 58.3416 62.6471 58.0614C68.7977 55.3416 75.2442 53.4921 81.823 52.0842C82.2165 52.0116 82.61 51.9391 83.0168 51.8978C83.2313 51.8817 83.4501 51.919 83.6376 51.9694C84.0035 52.0925 84.1719 52.4454 84.0275 52.8003C83.9191 53.0665 83.7482 53.3589 83.515 53.5484C82.941 54.0646 82.3669 54.5808 81.7307 54.9941C79.6342 56.3128 77.5376 57.6314 75.4145 58.8875C72.2298 60.7717 69.0096 62.6155 65.8026 64.4906C65.1935 64.8374 64.6109 65.2467 64.0417 65.6872C63.217 66.3083 63.1437 66.7438 63.7614 67.5899C64.2325 68.2211 64.7439 68.8171 65.2958 69.3777C67.2895 71.3784 69.4628 73.1936 71.6541 74.9644C77.2167 79.5033 82.6313 84.2146 87.7676 89.2264C88.0836 89.536 88.4309 89.8324 88.7469 90.142C88.876 90.2721 88.9827 90.3931 89.0714 90.5585C89.2531 90.9427 88.9743 91.3722 88.5409 91.3509C88.389 91.3408 88.2239 91.2995 88.0901 91.245C86.5866 90.659 85.074 90.0952 83.5976 89.4427C79.8689 87.7444 76.2395 85.802 72.6594 83.8022C67.3985 80.8856 62.2815 77.7432 57.2993 74.3972C56.6264 73.9424 55.9355 73.5319 55.2536 73.0993C55.1064 73.0136 54.9593 72.9278 54.7719 72.8774C54.1919 72.6414 53.8924 72.6746 53.5016 73.1878C52.9849 73.8825 52.4905 74.5862 52.0408 75.3081C50.0755 78.4125 48.2127 81.5843 46.4525 84.8238C45.3135 86.9199 44.2324 89.0655 43.0711 91.1525C42.1662 92.801 41.1812 94.391 40.2318 96.0213C40.0114 96.3711 39.7241 96.6938 39.4459 96.9942C39.1586 97.3168 38.7778 97.5497 38.3094 97.3591C37.8946 97.1644 37.7757 96.754 37.8176 96.3316C37.8606 95.651 37.9125 94.9482 38.0761 94.2908C38.4578 92.7139 38.8486 91.1148 39.3641 89.5923C40.6214 85.8638 41.9143 82.1755 43.2832 78.4924C44.1099 76.2692 45.0704 74.1005 45.9864 71.9136C46.0676 71.7139 46.1579 71.4921 46.2752 71.2037C45.9226 71.112 45.6326 70.994 45.3246 70.9203C41.896 70.1456 38.453 69.5977 34.9788 69.0629C29.0754 68.1085 23.1269 67.2649 17.2197 66.1279C14.7104 65.6497 12.2059 65.0959 9.69231 64.5643C9.26373 64.4674 8.8309 64.3172 8.41135 64.1981C8.29983 64.1527 8.17927 64.1295 8.09908 64.0711C7.63969 63.8583 7.44849 63.6253 7.52123 63.3188C7.60776 62.9145 7.92534 62.8369 8.25619 62.7905C8.99383 62.7029 9.70014 62.6284 10.4288 62.5629C17.3352 61.883 24.2672 61.5238 31.1817 61.0799C34.4132 60.8695 37.6542 60.5078 40.8773 60.1906C41.2841 60.1493 41.6553 60.0676 42.1561 59.987C42.0636 59.6392 42.0158 59.3094 41.8963 59.0281C41.2685 57.3765 40.7033 55.6986 39.9501 54.0994C38.4438 50.9009 36.8658 47.7508 35.2655 44.5917C33.3194 40.7488 31.436 36.8798 29.8972 32.8666C29.5567 31.9783 29.2566 31.0547 28.9788 30.1401C28.8949 29.8991 28.8513 29.6228 28.8078 29.3466C28.7557 28.9634 28.8953 28.6841 29.1773 28.5662C29.437 28.4392 29.736 28.535 29.9851 28.8173C30.0786 28.9071 30.154 29.0412 30.2475 29.1309C31.3989 30.582 32.4877 32.0593 33.6795 33.475C37.2284 37.6598 40.7995 41.8537 44.178 46.2018C45.8005 48.2841 47.5935 50.2031 49.5793 51.9679C49.882 52.2462 50.1221 52.5507 50.3844 52.8643C50.6203 53.1154 50.8247 53.3796 51.0871 53.6932Z" fill="#F74D5A"/>
</svg>
