<svg width="29" height="24" viewBox="0 0 29 24" fill="none" xmlns="http://www.w3.org/2000/svg">
<path d="M26.0311 5.97447C26.048 6.23416 26.048 6.49507 26.048 6.75722C26.048 14.7657 20.062 24 9.11929 24V23.9951C5.887 24 2.72117 23.0572 0 21.2788C0.470042 21.3367 0.9425 21.365 1.41617 21.3662C4.09625 21.3687 6.699 20.453 8.80513 18.7669C6.25917 18.7176 4.02617 17.0266 3.24679 14.5577C4.13854 14.7325 5.05687 14.6968 5.93292 14.4543C3.15617 13.8833 1.16 11.3984 1.16 8.5135C1.16 8.48765 1.16 8.46181 1.16 8.43719C1.98771 8.90734 2.91329 9.16703 3.86063 9.19533C1.24579 7.4169 0.438625 3.87481 2.01792 1.10563C5.03875 4.89141 9.49629 7.19291 14.2801 7.43783C13.8004 5.33325 14.4565 3.12775 16.0007 1.64716C18.3969 -0.648185 22.1657 -0.530033 24.4192 1.91054C25.752 1.64347 27.0292 1.14501 28.1977 0.439796C27.753 1.84285 26.8238 3.03421 25.5816 3.79235C26.7622 3.64836 27.9137 3.32713 29 2.83729C28.2013 4.0545 27.196 5.11664 26.0311 5.97447Z" fill="black"/>
</svg>
